# 3ds Max Wavefront OBJ Exporter v0.97b - (c)2007 guruware
# File Created: 24.04.2018 20:52:17

mtllib hammerTing.mtl

#
# object Cylinder01
#

v  0.7722 -0.7921 0.0000
v  0.2386 -0.7921 -0.7344
v  0.4718 0.1736 -1.4521
v  1.5268 0.1736 -0.0000
v  -0.6247 -0.7921 -0.4539
v  -1.2352 0.1736 -0.8974
v  -0.6247 -0.7921 0.4539
v  -1.2352 0.1736 0.8974
v  0.2386 -0.7921 0.7344
v  0.4718 0.1736 1.4521
v  0.9063 0.9626 -0.0000
v  0.2801 0.9626 -0.8619
v  0.3777 27.2039 -1.1623
v  1.2221 27.2039 0.0000
v  -0.7332 0.9626 -0.5327
v  -0.9887 27.2039 -0.7183
v  -0.7332 0.9626 0.5327
v  -0.9887 27.2039 0.7183
v  0.2801 0.9626 0.8619
v  0.3777 27.2039 1.1623
v  1.9854 29.5042 0.0000
v  0.6135 29.5042 -1.8883
v  1.1657 30.4547 -3.5876
v  3.7723 30.4547 0.0000
v  -1.6063 29.5042 -1.1670
v  -3.0518 30.4547 -2.2173
v  -1.6063 29.5042 1.1670
v  -3.0518 30.4547 2.2173
v  0.6135 29.5042 1.8883
v  1.1657 30.4547 3.5876
v  1.8639 42.8911 -5.7365
v  6.0317 42.8911 0.0000
v  -4.8797 42.8911 -3.5453
v  -4.8797 42.8911 3.5453
v  1.8639 42.8911 5.7365
v  0.7831 45.0592 -2.4103
v  2.5343 45.0592 -0.0000
v  -2.0503 45.0592 -1.4896
v  -2.0503 45.0592 1.4896
v  0.7831 45.0592 2.4103
v  0.7230 28.2006 -2.2251
v  2.3396 28.2006 0.0000
v  -1.8927 28.2006 -1.3752
v  -1.8927 28.2006 1.3752
v  0.7230 28.2006 2.2251
v  -0.0000 46.2397 -0.0000
v  -0.0000 44.9205 -1.3193
v  -1.3193 44.9205 0.0000
v  0.0000 44.9205 1.3193
v  1.3193 44.9205 -0.0000
v  -1.8099 40.9508 -5.7317
v  -0.4457 39.8982 -4.6328
v  -2.4066 39.9402 -4.0587
v  -2.3623 41.9833 -4.0569
v  -0.4014 41.9414 -4.6310
v  4.9655 40.9508 -3.5228
v  4.3994 39.8982 -1.8651
v  3.1893 39.9402 -3.5113
v  3.2028 41.9833 -3.4691
v  4.4129 41.9414 -1.8229
v  4.9819 40.9508 3.5143
v  3.2306 39.8982 3.5493
v  4.3636 39.9402 1.8491
v  4.3286 41.9833 1.8762
v  3.1956 41.9414 3.5764
v  -2.0006 40.9508 5.7586
v  -2.4878 39.8982 4.0760
v  -0.5522 39.9402 4.7304
v  -0.5875 41.9833 4.7036
v  -2.5230 41.9414 4.0492
v  -6.1179 40.9508 -0.0338
v  -4.7033 39.8982 -1.0671
v  -4.6563 39.9402 0.9756
v  -4.6431 41.9833 0.9333
v  -4.6902 41.9414 -1.1094
# 75 vertices

vn 0.5569 -0.8306 0.0000
vn 0.1721 -0.8306 -0.5296
vn 0.3090 0.0013 -0.9511
vn 1.0000 0.0013 -0.0000
vn -0.4505 -0.8306 -0.3273
vn -0.8090 0.0013 -0.5878
vn -0.4505 -0.8306 0.3273
vn -0.8090 0.0013 0.5878
vn 0.1721 -0.8306 0.5296
vn 0.3090 0.0013 0.9511
vn 0.9301 0.3672 -0.0000
vn 0.2874 0.3672 -0.8846
vn 0.2702 -0.4853 -0.8316
vn 0.8744 -0.4853 0.0000
vn -0.7525 0.3672 -0.5467
vn -0.7074 -0.4853 -0.5139
vn -0.7525 0.3672 0.5467
vn -0.7074 -0.4853 0.5139
vn 0.2874 0.3672 0.8846
vn 0.2702 -0.4853 0.8316
vn 0.8549 -0.5187 0.0000
vn 0.2642 -0.5187 -0.8131
vn 0.2635 -0.5222 -0.8111
vn 0.8528 -0.5222 -0.0000
vn -0.6917 -0.5187 -0.5025
vn -0.6900 -0.5222 -0.5013
vn -0.6917 -0.5187 0.5025
vn -0.6900 -0.5222 0.5013
vn 0.2642 -0.5187 0.8131
vn 0.2635 -0.5222 0.8111
vn 0.2902 0.3439 -0.8930
vn 0.9390 0.3439 0.0000
vn -0.7597 0.3439 -0.5519
vn -0.7597 0.3439 0.5519
vn 0.2902 0.3439 0.8930
vn 0.1137 0.9299 -0.3498
vn 0.3679 0.9299 0.0000
vn -0.2976 0.9299 -0.2162
vn -0.2976 0.9299 0.2162
vn 0.1137 0.9299 0.3498
vn 0.2998 -0.2421 -0.9228
vn 0.9702 -0.2421 -0.0000
vn -0.7849 -0.2421 -0.5703
vn -0.7849 -0.2421 0.5703
vn 0.2998 -0.2421 0.9228
vn 0.0000 1.0000 0.0000
vn -0.0000 0.7071 -0.7071
vn -0.7071 0.7071 0.0000
vn 0.0000 0.7071 0.7071
vn 0.7071 0.7071 -0.0000
vn -0.2809 0.0069 -0.9597
vn 0.2703 -0.5053 -0.8195
vn -0.6892 -0.4847 -0.5386
vn -0.6675 0.5150 -0.5377
vn 0.2920 0.4945 -0.8187
vn 0.8058 0.0069 -0.5922
vn 0.8626 -0.5053 -0.0263
vn 0.2704 -0.4847 -0.8318
vn 0.2770 0.5150 -0.8112
vn 0.8692 0.4945 -0.0056
vn 0.8320 0.0069 0.5547
vn 0.3197 -0.5053 0.8016
vn 0.8741 -0.4847 -0.0304
vn 0.8570 0.5150 -0.0171
vn 0.3026 0.4945 0.8148
vn -0.3204 0.0069 0.9473
vn -0.6915 -0.5053 0.5163
vn 0.2556 -0.4847 0.8365
vn 0.2384 0.5150 0.8234
vn -0.7088 0.4945 0.5031
vn -0.9997 0.0069 0.0229
vn -0.7216 -0.5053 -0.4732
vn -0.6986 -0.4847 0.5263
vn -0.6922 0.5150 0.5056
vn -0.7152 0.4945 -0.4939
# 75 vertex normals

vt 0.8867 0.0286 0.4309
vt 0.9572 0.0286 0.5351
vt 0.9770 0.0845 1.0741
vt 0.8987 0.0845 0.9501
vt 0.5921 0.0286 0.5351
vt 0.6684 0.0286 0.6235
vt 0.6564 0.0845 1.1507
vt 0.5719 0.0845 1.0741
vt 0.7438 0.0286 0.6235
vt 0.7401 0.0845 1.1507
vt 0.8168 0.0286 0.5351
vt 0.8212 0.0845 1.0741
vt 0.1734 0.0253 0.6786
vt 0.2280 0.0253 0.7915
vt 0.2279 0.9859 1.0741
vt 0.1734 0.9859 0.9501
vt 0.2813 0.0253 0.8748
vt 0.2819 0.9859 1.1507
vt 0.0155 0.0253 0.8748
vt 0.0694 0.0253 0.8748
vt 0.0695 0.9859 1.1507
vt 0.0154 0.9859 1.1507
vt 0.1214 0.0253 0.7915
vt 0.1208 0.9859 1.0741
vt 0.7016 0.6332 0.2455
vt 0.8040 0.6332 0.3458
vt 0.8109 0.6652 0.6649
vt 0.7039 0.6652 0.5566
vt 0.9015 0.6332 0.4360
vt 0.9126 0.6652 0.7510
vt 0.3885 0.6332 0.4360
vt 0.4940 0.6332 0.4360
vt 0.4874 0.6652 0.7510
vt 0.3772 0.6652 0.7510
vt 0.5961 0.6332 0.3458
vt 0.5938 0.6652 0.6649
vt 0.8559 0.9236 1.0741
vt 0.7193 0.9236 0.9501
vt 0.9841 0.9236 1.1507
vt 0.4443 0.9236 1.1507
vt 0.3042 0.9236 1.1507
vt 0.5786 0.9236 1.0741
vt 0.8479 0.9809 0.4428
vt 0.7168 0.9809 0.3410
vt 0.9729 0.9809 0.5325
vt 0.4510 0.9809 0.5325
vt 0.3162 0.9809 0.5325
vt 0.5818 0.9809 0.4428
vt 0.4896 0.1154 0.0005
vt 0.3205 0.1677 0.0005
vt 0.3205 0.3368 0.0005
vt 0.4896 0.3891 0.0005
vt 0.5942 0.2523 0.0005
vt 0.5947 0.2523 0.9995
vt 0.4898 0.3896 0.9995
vt 0.3200 0.3372 0.9995
vt 0.3200 0.1674 0.9995
vt 0.4898 0.1149 0.9995
vt 0.9641 0.1311 0.6303
vt 0.8907 0.1311 0.5232
vt 0.6636 0.1311 0.7171
vt 0.5855 0.1311 0.6303
vt 0.7425 0.1311 0.7171
vt 0.8182 0.1311 0.6303
vt 0.9078 0.5210 1.0741
vt 0.8976 0.5776 0.9085
vt 0.7992 0.5776 0.7911
vt 0.8052 0.5210 0.9501
vt 0.4908 0.5210 1.1507
vt 0.4975 0.5776 0.9891
vt 0.3926 0.5776 0.9085
vt 0.3826 0.5210 1.0741
vt 0.5974 0.5210 1.1507
vt 0.6001 0.5776 0.9891
vt 0.7027 0.5210 1.0741
vt 0.7008 0.5776 0.9085
vt 0.8846 0.4732 0.5531
vt 0.7909 0.4732 0.4484
vt 0.5052 0.4732 0.6412
vt 0.4058 0.4732 0.5531
vt 0.6017 0.4732 0.6412
vt 0.6972 0.4732 0.5531
vt 0.8708 0.2724 0.9995
vt 0.8708 0.3661 0.0005
vt 0.7770 0.2724 0.0005
vt 0.8708 0.1787 0.0005
vt 0.9645 0.2724 0.0005
# 87 texture coords

o Cylinder01
g Cylinder01
usemtl 01___Default
s 1
f 1/1/1 2/2/2 3/3/3 4/4/4 
s 2
f 2/5/2 5/6/5 6/7/6 3/8/3 
s 1
f 5/6/5 7/9/7 8/10/8 6/7/6 
s 2
f 7/9/7 9/11/9 10/12/10 8/10/8 
s 4
f 9/11/9 1/1/1 4/4/4 10/12/10 
s 1
f 11/13/11 12/14/12 13/15/13 14/16/14 
f 12/14/12 15/17/15 16/18/16 13/15/13 
f 15/19/15 17/20/17 18/21/18 16/22/16 
f 17/20/17 19/23/19 20/24/20 18/21/18 
f 19/23/19 11/13/11 14/16/14 20/24/20 
f 21/25/21 22/26/22 23/27/23 24/28/24 
s 2
f 22/26/22 25/29/25 26/30/26 23/27/23 
s 1
f 25/31/25 27/32/27 28/33/28 26/34/26 
s 2
f 27/32/27 29/35/29 30/36/30 28/33/28 
s 4
f 29/35/29 21/25/21 24/28/24 30/36/30 
s 8
f 24/28/24 23/27/23 31/37/31 32/38/32 
s 4
f 23/27/23 26/30/26 33/39/33 31/37/31 
s 8
f 26/34/26 28/33/28 34/40/34 33/41/33 
s 16
f 28/33/28 30/36/30 35/42/35 34/40/34 
s 32
f 30/36/30 24/28/24 32/38/32 35/42/35 
s 1
f 32/38/32 31/37/31 36/43/36 37/44/37 
s 2
f 31/37/31 33/39/33 38/45/38 36/43/36 
s 1
f 33/41/33 34/40/34 39/46/39 38/47/38 
s 2
f 34/40/34 35/42/35 40/48/40 39/46/39 
s 4
f 35/42/35 32/38/32 37/44/37 40/48/40 
s 8
f 9/49/9 7/50/7 5/51/5 2/52/2 1/53/1 
f 37/54/37 36/55/36 38/56/38 39/57/39 40/58/40 
f 3/3/3 12/59/12 11/60/11 4/4/4 
s 4
f 6/7/6 15/61/15 12/62/12 3/8/3 
s 8
f 8/10/8 17/63/17 15/61/15 6/7/6 
s 16
f 10/12/10 19/64/19 17/63/17 8/10/8 
s 32
f 4/4/4 11/60/11 19/64/19 10/12/10 
s 8
f 41/65/41 22/66/22 21/67/21 42/68/42 
s 4
f 43/69/43 25/70/25 22/71/22 41/72/41 
s 8
f 44/73/44 27/74/27 25/70/25 43/69/43 
s 16
f 45/75/45 29/76/29 27/74/27 44/73/44 
s 32
f 42/68/42 21/67/21 29/76/29 45/75/45 
s 16
f 13/77/13 41/65/41 42/68/42 14/78/14 
s 32
f 16/79/16 43/69/43 41/72/41 13/80/13 
s 64
f 18/81/18 44/73/44 43/69/43 16/79/16 
s 128
f 20/82/20 45/75/45 44/73/44 18/81/18 
s 64
f 14/78/14 42/68/42 45/75/45 20/82/20 
s 1
f 46/83/46 47/84/47 48/85/48 
s 2
f 46/83/46 48/85/48 49/86/49 
s 4
f 46/83/46 49/86/49 50/87/50 
s 8
f 46/83/46 50/87/50 47/84/47 
s 1
f 51/83/51 52/84/52 53/85/53 
s 2
f 51/83/51 53/85/53 54/86/54 
s 4
f 51/83/51 54/86/54 55/87/55 
s 8
f 51/83/51 55/87/55 52/84/52 
s 1
f 56/83/56 57/84/57 58/85/58 
s 2
f 56/83/56 58/85/58 59/86/59 
s 4
f 56/83/56 59/86/59 60/87/60 
s 8
f 56/83/56 60/87/60 57/84/57 
s 1
f 61/83/61 62/84/62 63/85/63 
s 2
f 61/83/61 63/85/63 64/86/64 
s 4
f 61/83/61 64/86/64 65/87/65 
s 8
f 61/83/61 65/87/65 62/84/62 
s 1
f 66/83/66 67/84/67 68/85/68 
s 2
f 66/83/66 68/85/68 69/86/69 
s 4
f 66/83/66 69/86/69 70/87/70 
s 8
f 66/83/66 70/87/70 67/84/67 
s 1
f 71/83/71 72/84/72 73/85/73 
s 2
f 71/83/71 73/85/73 74/86/74 
s 4
f 71/83/71 74/86/74 75/87/75 
s 8
f 71/83/71 75/87/75 72/84/72 
# 42 polygons - 24 triangles

