# 3ds Max Wavefront OBJ Exporter v0.97b - (c)2007 guruware
# File Created: 24.04.2018 20:33:10

mtllib spearSword.mtl

#
# object Cylinder01
#

v  -0.4840 1.6761 -0.0000
v  -0.4840 0.8313 -1.4399
v  -1.8421 1.2576 -2.1782
v  -1.8421 2.5287 -0.0000
v  -0.4840 -0.8313 -1.4399
v  -1.8421 -1.2576 -2.1782
v  -0.4840 -1.6492 0.0000
v  -1.8421 -2.5018 0.0000
v  -3.2481 0.8313 -1.4399
v  -3.2481 1.6761 -0.0000
v  -3.2481 -0.8313 -1.4399
v  -3.2481 -1.6492 0.0000
v  -127.7490 1.0726 -1.8578
v  -127.7490 2.1587 -0.0000
v  -127.7490 -1.0726 -1.8578
v  -127.7490 -2.1318 0.0000
v  -131.2024 6.5080 -0.0000
v  -131.2024 3.2473 -3.7223
v  -131.7345 1.3300 -1.1461
v  -131.7345 2.6735 -0.0000
v  -131.2024 -3.2473 -3.7223
v  -131.7345 -0.4678 -1.1461
v  -131.2024 -6.4811 0.0000
v  -131.7345 -2.6465 0.0000
v  -167.6407 1.9469 -0.7746
v  -167.0171 3.5565 -0.0000
v  -168.2628 -0.3345 -0.9457
v  -168.2628 -2.6990 0.0000
v  -129.3806 3.2473 -3.7223
v  -129.3806 6.5080 -0.0000
v  -129.3806 -3.2473 -3.7223
v  -129.3806 -6.4811 0.0000
v  -197.7410 10.1659 -0.5093
v  -202.3538 15.1930 -0.0000
v  -197.3026 11.6708 -0.0000
v  -199.5285 8.9034 -0.0000
v  -188.9690 6.0286 -0.6889
v  -188.5570 7.8408 -0.0000
v  -189.9492 4.2858 -0.5994
v  -191.6281 2.1147 -0.0000
v  -179.5192 3.3079 -0.7599
v  -178.9159 4.9848 -0.0000
v  -180.4822 1.4107 -0.7599
v  -182.0436 -0.9326 0.0000
v  -1.8421 1.2845 2.1782
v  -0.4840 0.8583 1.4399
v  -1.8421 -1.2307 2.1782
v  -0.4840 -0.8044 1.4399
v  -3.2481 0.8583 1.4399
v  -3.2481 -0.8044 1.4399
v  -127.7490 1.0995 1.8578
v  -127.7490 -1.0457 1.8578
v  -131.7345 1.3569 1.1461
v  -131.2024 3.2742 3.7223
v  -131.7345 -0.4409 1.1461
v  -131.2024 -3.2204 3.7223
v  -167.6407 1.9738 0.7746
v  -168.2628 -0.3076 0.9457
v  -129.3806 3.2742 3.7223
v  -129.3806 -3.2204 3.7223
v  -197.7410 10.1928 0.5093
v  -188.9690 6.0555 0.6889
v  -189.9492 4.3127 0.5994
v  -179.5192 3.3348 0.7599
v  -180.4822 1.4376 0.7599
# 65 vertices

vn 0.9841 0.1778 -0.0020
vn 0.9841 0.0879 -0.1543
vn 0.0036 0.4984 -0.8669
vn 0.0036 1.0000 -0.0037
vn 0.9840 -0.0899 -0.1538
vn 0.0036 -0.5016 -0.8651
vn 0.9841 -0.1778 0.0020
vn 0.0036 -1.0000 0.0037
vn -0.7070 0.3511 -0.6139
vn -0.7078 0.7064 -0.0058
vn -0.7087 -0.3553 -0.6095
vn -0.7078 -0.7064 0.0058
vn 0.7978 0.2844 -0.5316
vn 0.8185 0.5745 -0.0033
vn 0.7994 -0.2862 -0.5283
vn 0.8185 -0.5745 0.0033
vn -0.5782 0.8159 -0.0017
vn -0.6160 0.3260 -0.7172
vn -0.7890 0.1966 -0.5821
vn -0.8922 0.4517 -0.0026
vn -0.6167 -0.3276 -0.7157
vn -0.7646 -0.1531 -0.6260
vn -0.5781 -0.8159 0.0017
vn -0.9578 -0.2874 0.0010
vn 0.0449 0.2291 -0.9724
vn 0.4109 0.9117 -0.0038
vn -0.1523 -0.1913 -0.9697
vn -0.2644 -0.9644 0.0017
vn 0.5924 0.3374 -0.7316
vn 0.5666 0.8240 -0.0017
vn 0.5921 -0.3390 -0.7311
vn 0.5666 -0.8240 0.0017
vn -0.1495 0.1000 -0.9837
vn -0.1594 0.9872 -0.0002
vn 0.9657 0.2598 -0.0037
vn -0.9842 -0.1768 0.0023
vn 0.1450 0.1311 -0.9807
vn 0.9193 0.3936 -0.0034
vn -0.4004 -0.0966 -0.9112
vn -0.9057 -0.4239 0.0018
vn 0.1261 0.1693 -0.9775
vn 0.8037 0.5950 -0.0038
vn -0.2762 -0.1305 -0.9522
vn -0.6977 -0.7164 0.0016
vn 0.0036 0.5016 0.8651
vn 0.9840 0.0899 0.1538
vn 0.0036 -0.4984 0.8669
vn 0.9841 -0.0879 0.1543
vn -0.7087 0.3553 0.6095
vn -0.7070 -0.3511 0.6139
vn 0.7994 0.2862 0.5283
vn 0.7978 -0.2844 0.5316
vn -0.7901 0.1989 0.5798
vn -0.6157 0.3275 0.7167
vn -0.7640 -0.1517 0.6271
vn -0.6171 -0.3261 0.7162
vn 0.0458 0.2317 0.9717
vn -0.1514 -0.1892 0.9702
vn 0.5921 0.3390 0.7311
vn 0.5924 -0.3374 0.7316
vn -0.1442 0.1019 0.9843
vn 0.1479 0.1326 0.9801
vn -0.3989 -0.0961 0.9120
vn 0.1280 0.1714 0.9768
vn -0.2748 -0.1294 0.9528
# 65 vertex normals

vt 0.9457 0.2001 0.9995
vt 0.8925 0.2001 0.3391
vt 0.8977 0.2511 0.0005
vt 0.9591 0.2511 0.9995
vt 0.8251 0.2001 0.3391
vt 0.8199 0.2511 0.0005
vt 0.7718 0.2001 0.9995
vt 0.7584 0.2511 0.9995
vt 0.8948 0.3114 0.3391
vt 0.9518 0.3114 0.9995
vt 0.8227 0.3114 0.3391
vt 0.7658 0.3114 0.9995
vt 0.4618 0.0110 0.9995
vt 0.4340 0.0110 0.2252
vt 0.4374 0.9904 0.0005
vt 0.4701 0.9904 0.9995
vt 0.4101 0.0110 0.2252
vt 0.4066 0.9904 0.0005
vt 0.3822 0.0110 0.9995
vt 0.3740 0.9904 0.9995
vt 0.5257 0.1167 0.9995
vt 0.6356 0.1167 0.0005
vt 0.6570 0.1520 0.6919
vt 0.5385 0.1520 0.9995
vt 0.8744 0.1167 0.0005
vt 0.8181 0.1520 0.6919
vt 0.9803 0.1167 0.9995
vt 0.9719 0.1520 0.9995
vt 0.2105 0.0145 0.9994
vt 0.2287 0.0145 0.0005
vt 0.2203 0.5076 0.3242
vt 0.1984 0.4990 0.9990
vt 0.2534 0.0145 0.0005
vt 0.2515 0.5161 0.1751
vt 0.2834 0.0145 0.9994
vt 0.2841 0.5161 0.9733
vt 0.6356 0.0627 0.0005
vt 0.5257 0.0627 0.9995
vt 0.8744 0.0627 0.0005
vt 0.9803 0.0627 0.9995
vt 0.6588 0.0144 0.5009
vt 0.5483 0.0144 0.9995
vt 0.8440 0.0144 0.5009
vt 0.9586 0.0144 0.9995
vt 0.1076 0.9210 0.5555
vt 0.0389 0.9844 0.9994
vt 0.0872 0.9150 0.9994
vt 0.1251 0.9456 0.9994
vt 0.1643 0.8005 0.3990
vt 0.1397 0.7949 0.9994
vt 0.1882 0.8140 0.4769
vt 0.2182 0.8370 0.9994
vt 0.2016 0.6707 0.3371
vt 0.1788 0.6625 0.9995
vt 0.2276 0.6840 0.3371
vt 0.2599 0.7054 0.9957
vt 0.7655 0.4489 0.5000
vt 0.8077 0.5089 0.5000
vt 0.8920 0.5089 0.5000
vt 0.9341 0.4489 0.5000
# 60 texture coords

o Cylinder01
g Cylinder01
usemtl 01___Default
s 1
f 1/1/1 2/2/2 3/3/3 4/4/4 
f 2/2/2 5/5/5 6/6/6 3/3/3 
f 5/5/5 7/7/7 8/8/8 6/6/6 
s 2
f 4/4/4 3/3/3 9/9/9 10/10/10 
f 3/3/3 6/6/6 11/11/11 9/9/9 
f 6/6/6 8/8/8 12/12/12 11/11/11 
s 1
f 10/13/10 9/14/9 13/15/13 14/16/14 
f 9/14/9 11/17/11 15/18/15 13/15/13 
f 11/17/11 12/19/12 16/20/16 15/18/15 
f 17/21/17 18/22/18 19/23/19 20/24/20 
f 18/22/18 21/25/21 22/26/22 19/23/19 
f 21/25/21 23/27/23 24/28/24 22/26/22 
s 2
f 20/29/20 19/30/19 25/31/25 26/32/26 
f 19/30/19 22/33/22 27/34/27 25/31/25 
f 22/33/22 24/35/24 28/36/28 27/34/27 
f 29/37/29 18/22/18 17/21/17 30/38/30 
f 31/39/31 21/25/21 18/22/18 29/37/29 
f 32/40/32 23/27/23 21/25/21 31/39/31 
s 4
f 13/41/13 29/37/29 30/38/30 14/42/14 
f 15/43/15 31/39/31 29/37/29 13/41/13 
f 16/44/16 32/40/32 31/39/31 15/43/15 
s 2
f 33/45/33 34/46/34 35/47/35 
f 36/48/36 34/46/34 33/45/33 
f 37/49/37 33/45/33 35/47/35 38/50/38 
f 39/51/39 33/45/33 37/49/37 
f 40/52/40 36/48/36 33/45/33 39/51/39 
f 41/53/41 37/49/37 38/50/38 42/54/42 
f 43/55/43 39/51/39 37/49/37 41/53/41 
f 44/56/44 40/52/40 39/51/39 43/55/43 
f 25/31/25 41/53/41 42/54/42 26/32/26 
f 27/34/27 43/55/43 41/53/41 25/31/25 
f 28/36/28 44/56/44 43/55/43 27/34/27 
s 1
f 7/57/7 5/58/5 2/59/2 1/60/1 
f 1/1/1 4/4/4 45/3/45 46/2/46 
f 46/2/46 45/3/45 47/6/47 48/5/48 
f 48/5/48 47/6/47 8/8/8 7/7/7 
s 2
f 4/4/4 10/10/10 49/9/49 45/3/45 
f 45/3/45 49/9/49 50/11/50 47/6/47 
f 47/6/47 50/11/50 12/12/12 8/8/8 
s 1
f 10/13/10 14/16/14 51/15/51 49/14/49 
f 49/14/49 51/15/51 52/18/52 50/17/50 
f 50/17/50 52/18/52 16/20/16 12/19/12 
f 17/21/17 20/24/20 53/23/53 54/22/54 
f 54/22/54 53/23/53 55/26/55 56/25/56 
f 56/25/56 55/26/55 24/28/24 23/27/23 
s 4
f 20/29/20 26/32/26 57/31/57 53/30/53 
f 53/30/53 57/31/57 58/34/58 55/33/55 
f 55/33/55 58/34/58 28/36/28 24/35/24 
s 8
f 59/37/59 30/38/30 17/21/17 54/22/54 
f 60/39/60 59/37/59 54/22/54 56/25/56 
f 32/40/32 60/39/60 56/25/56 23/27/23 
s 4
f 51/41/51 14/42/14 30/38/30 59/37/59 
f 52/43/52 51/41/51 59/37/59 60/39/60 
f 16/44/16 52/43/52 60/39/60 32/40/32 
f 61/45/61 35/47/35 34/46/34 
f 36/48/36 61/45/61 34/46/34 
f 62/49/62 38/50/38 35/47/35 61/45/61 
f 63/51/63 62/49/62 61/45/61 
f 40/52/40 63/51/63 61/45/61 36/48/36 
f 64/53/64 42/54/42 38/50/38 62/49/62 
f 65/55/65 64/53/64 62/49/62 63/51/63 
f 44/56/44 65/55/65 63/51/63 40/52/40 
f 57/31/57 26/32/26 42/54/42 64/53/64 
f 58/34/58 57/31/57 64/53/64 65/55/65 
f 28/36/28 58/34/58 65/55/65 44/56/44 
s 1
f 7/57/7 1/60/1 46/59/46 48/58/48 
# 60 polygons - 6 triangles

