# 3ds Max Wavefront OBJ Exporter v0.97b - (c)2007 guruware
# File Created: 25.04.2018 18:57:54

mtllib BattleAxe1.mtl

#
# object Axe_Cube
#

v  -0.1947 2.5482 0.2046
v  -0.1947 2.5209 0.2046
v  -0.0884 2.5908 0.9233
v  -0.0884 2.6173 0.9233
v  0.1947 2.5482 0.2046
v  0.0884 2.6173 0.9233
v  0.0884 2.5908 0.9233
v  0.1947 2.5209 0.2046
v  0.0647 2.5825 1.0444
v  0.0661 2.5489 1.0374
v  -0.0661 2.5489 1.0374
v  -0.0647 2.5825 1.0444
v  -0.0498 2.4642 1.1194
v  -0.0475 2.5068 1.1348
v  0.0475 2.5068 1.1348
v  0.0498 2.4642 1.1194
v  0.0382 2.3979 1.1835
v  0.0401 2.3683 1.1671
v  -0.0401 2.3683 1.1671
v  -0.0382 2.3979 1.1835
v  -0.0362 2.2300 1.1467
v  -0.0345 2.2459 1.1655
v  0.0345 2.2459 1.1655
v  0.0362 2.2300 1.1467
v  0.0325 2.1175 1.1409
v  0.0341 2.1135 1.1235
v  -0.0341 2.1135 1.1235
v  -0.0325 2.1175 1.1409
v  -0.0302 1.9280 1.0752
v  -0.0288 1.9279 1.0908
v  0.0288 1.9279 1.0908
v  0.0302 1.9280 1.0752
v  0.0273 1.8153 1.0598
v  0.0286 1.8249 1.0500
v  -0.0286 1.8249 1.0500
v  -0.0273 1.8153 1.0598
v  -0.1947 2.9924 0.2046
v  -0.0883 3.0258 0.9233
v  -0.0883 3.0491 0.9233
v  -0.1947 3.0164 0.2046
v  0.1947 2.9924 0.2046
v  0.0883 3.0258 0.9233
v  0.1947 3.0164 0.2046
v  0.0883 3.0491 0.9233
v  0.0383 3.1054 1.1766
v  0.0371 3.1349 1.1827
v  -0.0383 3.1054 1.1766
v  -0.0371 3.1349 1.1827
v  -0.0021 3.2549 1.4275
v  -0.0000 3.2924 1.4410
v  0.0021 3.2549 1.4275
v  0.0017 2.9602 1.4951
v  -0.0000 2.9862 1.5095
v  -0.0017 2.9602 1.4951
v  -0.0015 2.5486 1.5243
v  -0.0000 2.5626 1.5409
v  0.0015 2.5486 1.5243
v  0.0014 2.1939 1.4724
v  -0.0000 2.1974 1.4877
v  -0.0014 2.1939 1.4724
v  -0.0013 1.9266 1.3866
v  -0.0000 1.9265 1.4003
v  0.0013 1.9266 1.3866
v  0.0012 1.6322 1.2473
v  -0.0000 1.6238 1.2559
v  -0.0012 1.6322 1.2473
v  0.0000 3.0164 0.2046
v  -0.0000 3.0491 0.9233
v  0.0000 2.5209 0.2046
v  -0.0000 2.5908 0.9233
v  -0.0000 2.5489 1.0374
v  -0.0000 3.1349 1.1827
v  -0.0000 2.4642 1.1194
v  -0.0000 2.3683 1.1671
v  -0.0000 2.2300 1.1467
v  -0.0000 2.1135 1.1235
v  -0.0000 1.9280 1.0752
v  -0.0000 1.8249 1.0500
v  -0.1739 2.5277 -0.3627
v  -0.1749 2.5482 -0.3757
v  -0.0000 2.5482 -0.3757
v  -0.0000 2.5277 -0.3627
v  0.1749 2.5482 -0.3757
v  0.1739 2.5277 -0.3627
v  -0.0000 1.8153 1.0598
v  -0.0000 2.9924 -0.3757
v  -0.1749 2.9924 -0.3757
v  0.1749 2.9924 -0.3757
v  -0.1739 3.0096 -0.3627
v  -0.0000 3.0096 -0.3627
v  0.1739 3.0096 -0.3627
v  -0.0000 1.6322 1.2473
v  0.1947 2.5482 -0.3340
v  0.1947 2.5209 -0.3340
v  -0.1947 2.5209 -0.3340
v  -0.1947 2.5482 -0.3340
v  0.1947 2.9924 -0.3340
v  0.1947 3.0164 -0.3340
v  -0.1947 2.9924 -0.3340
v  -0.1947 3.0164 -0.3340
v  -0.0000 2.5209 -0.3340
v  -0.0000 3.0164 -0.3340
v  -0.0000 -2.9935 -0.0087
v  -0.0976 -2.9935 -0.1544
v  -0.0000 -2.9935 -0.2147
v  0.0976 -2.9935 -0.1544
v  0.1381 -2.9935 -0.0087
v  0.0976 -2.9478 0.1369
v  0.0000 -2.9314 0.1972
v  -0.0976 -2.9478 0.1369
v  -0.1381 -2.9935 -0.0087
v  -0.1076 2.5217 -0.2289
v  -0.0000 2.5217 -0.2954
v  -0.0000 2.0107 -0.2942
v  -0.1039 1.9989 -0.2299
v  0.1076 2.5217 -0.2289
v  0.1039 1.9989 -0.2299
v  0.1521 2.5217 -0.0684
v  0.1469 1.9692 -0.0682
v  0.1076 2.5217 0.0921
v  0.1039 1.9407 0.0916
v  0.0000 2.5217 0.1586
v  0.0000 1.9289 0.1591
v  -0.1076 2.5217 0.0921
v  -0.1039 1.9407 0.0916
v  -0.1521 2.5217 -0.0684
v  -0.1469 1.9692 -0.0682
v  -0.0891 -0.1186 -0.1279
v  -0.0000 -0.1186 -0.1804
v  -0.0000 -2.1569 -0.1856
v  -0.0891 -2.1569 -0.1360
v  0.0891 -0.1186 -0.1279
v  0.0891 -2.1569 -0.1360
v  0.1260 -0.1186 -0.0013
v  0.1260 -2.1569 -0.0162
v  0.0891 -0.1186 0.1254
v  0.0891 -2.1569 0.1036
v  0.0000 -0.1186 0.1779
v  0.0000 -2.1569 0.1532
v  -0.0891 -0.1186 0.1254
v  -0.0891 -2.1569 0.1036
v  -0.1260 -0.1186 -0.0013
v  -0.1260 -2.1569 -0.0162
v  -0.1059 -2.9211 -0.1674
v  -0.0000 -2.9211 -0.2329
v  0.1059 -2.9211 -0.1674
v  0.1498 -2.9211 -0.0094
v  0.1059 -2.8707 0.1487
v  0.0000 -2.8527 0.2141
v  -0.1059 -2.8707 0.1487
v  -0.1498 -2.9211 -0.0094
v  -0.1027 1.8495 -0.2066
v  -0.0000 1.8604 -0.2627
v  0.1027 1.8495 -0.2066
v  0.1453 1.8220 -0.0660
v  0.1027 1.7957 0.0731
v  0.0000 1.7848 0.1319
v  -0.1027 1.7957 0.0731
v  -0.1453 1.8220 -0.0660
# 159 vertices

vn -0.9973 0.0000 0.0733
vn -0.7095 -0.6999 0.0828
vn -0.7592 -0.6476 0.0645
vn -0.9855 0.0004 0.1695
vn 0.9973 0.0000 0.0733
vn 0.9855 0.0004 0.1695
vn 0.7592 -0.6476 0.0645
vn 0.7095 -0.6999 0.0828
vn 0.9816 0.0012 0.1907
vn 0.7822 -0.5870 -0.2089
vn -0.7822 -0.5870 -0.2089
vn -0.9816 0.0012 0.1907
vn -0.7832 -0.4346 -0.4446
vn -0.9845 -0.0086 0.1754
vn 0.9845 -0.0086 0.1754
vn 0.7832 -0.4346 -0.4446
vn 0.9842 -0.0327 0.1743
vn 0.8415 -0.1616 -0.5156
vn -0.8415 -0.1616 -0.5156
vn -0.9842 -0.0327 0.1743
vn -0.7579 0.0945 -0.6455
vn -0.9915 -0.0392 0.1242
vn 0.9915 -0.0392 0.1242
vn 0.7579 0.0945 -0.6455
vn 0.9939 -0.0409 0.1024
vn 0.7521 0.1322 -0.6456
vn -0.7521 0.1322 -0.6457
vn -0.9939 -0.0409 0.1024
vn -0.7391 0.1527 -0.6560
vn -0.9949 -0.0412 0.0924
vn 0.9949 -0.0412 0.0924
vn 0.7391 0.1527 -0.6560
vn 0.7175 -0.5456 -0.4329
vn 0.6448 -0.2342 -0.7276
vn -0.6448 -0.2342 -0.7276
vn -0.7175 -0.5456 -0.4329
vn -0.9973 0.0000 0.0735
vn -0.9854 0.0004 0.1701
vn -0.7421 0.6700 0.0166
vn -0.7264 0.6861 0.0395
vn 0.9973 0.0000 0.0735
vn 0.9854 0.0004 0.1701
vn 0.7264 0.6861 0.0395
vn 0.7421 0.6700 0.0166
vn 0.9866 0.0081 0.1633
vn 0.7384 0.6511 -0.1755
vn -0.9866 0.0081 0.1632
vn -0.7384 0.6511 -0.1755
vn -0.9929 0.0130 0.1184
vn -0.0000 0.8161 0.5779
vn 0.9929 0.0130 0.1184
vn 0.9955 0.0125 0.0941
vn 0.0000 0.1860 0.9825
vn -0.9955 0.0125 0.0941
vn -0.9954 -0.0049 0.0956
vn -0.0000 0.0113 0.9999
vn 0.9954 -0.0049 0.0956
vn 0.9949 -0.0236 0.0986
vn -0.0000 -0.2046 0.9788
vn -0.9949 -0.0236 0.0985
vn -0.9950 -0.0371 0.0924
vn -0.0000 -0.3558 0.9346
vn 0.9950 -0.0371 0.0924
vn 0.7154 -0.5471 -0.4346
vn -0.0000 -0.9351 0.3545
vn -0.7154 -0.5471 -0.4346
vn 0.0000 0.9997 -0.0227
vn -0.0000 0.9834 -0.1815
vn -0.0000 -0.9988 0.0485
vn -0.0000 -0.9919 -0.1273
vn -0.0000 -0.8381 -0.5455
vn -0.0000 0.9075 -0.4200
vn -0.0000 -0.5772 -0.8166
vn -0.0000 -0.1569 -0.9876
vn -0.0000 0.1706 -0.9853
vn 0.0000 0.2236 -0.9747
vn -0.0000 0.2448 -0.9696
vn -0.0000 -0.2751 -0.9614
vn -0.2865 -0.7433 -0.6045
vn -0.4941 -0.2404 -0.8355
vn -0.0000 -0.2786 -0.9604
vn -0.0000 -0.8146 -0.5801
vn 0.4941 -0.2404 -0.8355
vn 0.2865 -0.7433 -0.6045
vn 0.0000 -0.7156 -0.6985
vn -0.0000 0.3176 -0.9482
vn -0.4882 0.2734 -0.8288
vn 0.4883 0.2734 -0.8288
vn -0.2691 0.7733 -0.5741
vn 0.0000 0.8376 -0.5463
vn 0.2691 0.7733 -0.5741
vn -0.0000 -0.7155 -0.6986
vn 0.9755 0.0000 -0.2199
vn 0.7051 -0.6558 -0.2699
vn -0.7051 -0.6558 -0.2699
vn -0.9755 -0.0000 -0.2199
vn 0.7051 0.6558 -0.2699
vn -0.7051 0.6558 -0.2699
vn -0.0000 -0.9933 -0.1155
vn 0.0000 0.9933 -0.1155
vn 0.0000 -0.9888 0.1494
vn -0.5744 -0.7055 -0.4150
vn -0.0000 -0.6968 -0.7173
vn 0.5744 -0.7055 -0.4150
vn 0.6762 -0.7309 0.0922
vn 0.5632 -0.6175 0.5490
vn 0.0000 -0.5753 0.8179
vn -0.5632 -0.6175 0.5490
vn -0.6762 -0.7309 0.0922
vn -0.8005 -0.0046 -0.5994
vn -0.0000 -0.0024 -1.0000
vn 0.0000 -0.0950 -0.9955
vn -0.7901 -0.0541 -0.6106
vn 0.8005 -0.0046 -0.5994
vn 0.7901 -0.0541 -0.6106
vn 1.0000 -0.0095 -0.0001
vn 0.9999 -0.0105 -0.0015
vn 0.8001 -0.0057 0.5998
vn 0.8043 -0.0428 0.5926
vn -0.0000 0.0009 1.0000
vn 0.0000 -0.0954 0.9954
vn -0.8001 -0.0056 0.5998
vn -0.8043 -0.0428 0.5926
vn -1.0000 -0.0095 -0.0001
vn -0.9999 -0.0105 -0.0015
vn -0.7915 -0.0138 -0.6110
vn 0.0000 -0.0197 -0.9998
vn 0.0000 0.0325 -0.9995
vn -0.7781 0.0228 -0.6278
vn 0.7915 -0.0138 -0.6110
vn 0.7780 0.0228 -0.6278
vn 1.0000 -0.0049 0.0036
vn 0.9999 0.0156 -0.0015
vn 0.7869 0.0023 0.6171
vn 0.7801 0.0257 0.6252
vn 0.0000 0.0060 1.0000
vn 0.0000 0.0382 0.9993
vn -0.7869 0.0023 0.6171
vn -0.7801 0.0257 0.6252
vn -1.0000 -0.0049 0.0036
vn -0.9999 0.0156 -0.0015
vn -0.7912 -0.0761 -0.6067
vn -0.0000 -0.0878 -0.9961
vn 0.7913 -0.0761 -0.6067
vn 0.9973 -0.0726 0.0112
vn 0.7863 -0.0562 0.6153
vn 0.0000 -0.0465 0.9989
vn -0.7863 -0.0562 0.6153
vn -0.9973 -0.0726 0.0112
vn -0.7766 -0.0663 -0.6264
vn -0.0000 -0.1318 -0.9913
vn 0.7767 -0.0663 -0.6264
vn 0.9999 -0.0108 -0.0020
vn 0.7922 -0.0366 0.6092
vn 0.0000 -0.0777 0.9970
vn -0.7921 -0.0366 0.6092
vn -0.9999 -0.0108 -0.0020
# 157 vertex normals

vt 0.7903 0.3141 0.0000
vt 0.7828 0.3145 0.0000
vt 0.7982 0.1465 0.0000
vt 0.8054 0.1461 0.0000
vt 0.7905 0.6838 0.0000
vt 0.8056 0.8523 0.0000
vt 0.7984 0.8519 0.0000
vt 0.7830 0.6835 0.0000
vt 0.7954 0.8814 0.0000
vt 0.7862 0.8792 0.0000
vt 0.7860 0.1194 0.0000
vt 0.7952 0.1172 0.0000
vt 0.7624 0.1006 0.0000
vt 0.7740 0.0964 0.0000
vt 0.7741 0.9023 0.0000
vt 0.7625 0.8981 0.0000
vt 0.7440 0.9126 0.0000
vt 0.7359 0.9084 0.0000
vt 0.7358 0.0903 0.0000
vt 0.7438 0.0862 0.0000
vt 0.6979 0.0955 0.0000
vt 0.7022 0.0911 0.0000
vt 0.7023 0.9077 0.0000
vt 0.6981 0.9033 0.0000
vt 0.6672 0.9015 0.0000
vt 0.6662 0.8976 0.0000
vt 0.6660 0.1013 0.0000
vt 0.6670 0.0974 0.0000
vt 0.6153 0.1128 0.0000
vt 0.6152 0.1093 0.0000
vt 0.6154 0.8897 0.0000
vt 0.6155 0.8863 0.0000
vt 0.5846 0.8823 0.0000
vt 0.5873 0.8802 0.0000
vt 0.5871 0.1189 0.0000
vt 0.5844 0.1168 0.0000
vt 0.9121 0.3078 0.0000
vt 0.9175 0.1403 0.0000
vt 0.9239 0.1399 0.0000
vt 0.9187 0.3074 0.0000
vt 0.9123 0.6902 0.0000
vt 0.9177 0.8581 0.0000
vt 0.9189 0.6905 0.0000
vt 0.9240 0.8585 0.0000
vt 0.9380 0.9212 0.0000
vt 0.9461 0.9231 0.0000
vt 0.9378 0.0775 0.0000
vt 0.9459 0.0756 0.0000
vt 0.9775 0.0173 0.0000
vt 0.9877 0.0136 0.0000
vt 0.9777 0.9816 0.0000
vt 0.9879 0.9853 0.0000
vt 0.8966 0.9909 0.0000
vt 0.9037 0.9945 0.0000
vt 0.8964 0.0079 0.0000
vt 0.9035 0.0043 0.0000
vt 0.7834 0.0079 0.0000
vt 0.7872 0.0040 0.0000
vt 0.7836 0.9909 0.0000
vt 0.7874 0.9948 0.0000
vt 0.6865 0.9756 0.0000
vt 0.6874 0.9790 0.0000
vt 0.6864 0.0233 0.0000
vt 0.6873 0.0198 0.0000
vt 0.6134 0.0442 0.0000
vt 0.6133 0.0412 0.0000
vt 0.6136 0.9548 0.0000
vt 0.6135 0.9578 0.0000
vt 0.5334 0.9230 0.0000
vt 0.5311 0.9249 0.0000
vt 0.5332 0.0762 0.0000
vt 0.5309 0.0743 0.0000
vt 0.6260 0.4127 0.0000
vt 0.6258 0.5943 0.0000
vt 0.6032 0.5941 0.0000
vt 0.5762 0.4122 0.0000
vt 0.6759 0.4132 0.0000
vt 0.6484 0.5945 0.0000
vt 0.5061 0.6994 0.0000
vt 0.5062 0.5260 0.0000
vt 0.5276 0.5262 0.0000
vt 0.5531 0.6998 0.0000
vt 0.4590 0.6989 0.0000
vt 0.4849 0.5257 0.0000
vt 0.5060 0.4932 0.0000
vt 0.5219 0.4932 0.0000
vt 0.4900 0.4932 0.0000
vt 0.6259 0.6666 0.0000
vt 0.6165 0.6666 0.0000
vt 0.6354 0.6667 0.0000
vt 0.6251 0.7497 0.0000
vt 0.5056 0.4452 0.0000
vt 0.5177 0.4451 0.0000
vt 0.4936 0.4453 0.0000
vt 0.5056 0.3992 0.0000
vt 0.5153 0.3991 0.0000
vt 0.4959 0.3993 0.0000
vt 0.5055 0.3334 0.0000
vt 0.5143 0.3334 0.0000
vt 0.4968 0.3335 0.0000
vt 0.5055 0.2781 0.0000
vt 0.5137 0.2780 0.0000
vt 0.4972 0.2782 0.0000
vt 0.5054 0.1899 0.0000
vt 0.5127 0.1899 0.0000
vt 0.4981 0.1900 0.0000
vt 0.5053 0.1410 0.0000
vt 0.5123 0.1409 0.0000
vt 0.4984 0.1410 0.0000
vt 0.7855 0.4499 0.0000
vt 0.7923 0.4499 0.0000
vt 0.7923 0.4988 0.0000
vt 0.7855 0.4988 0.0000
vt 0.7923 0.5477 0.0000
vt 0.7855 0.5477 0.0000
vt 0.4988 0.1364 0.0000
vt 0.5053 0.1363 0.0000
vt 0.5119 0.1363 0.0000
vt 0.9144 0.4988 0.0000
vt 0.9144 0.4499 0.0000
vt 0.9144 0.5477 0.0000
vt 0.9210 0.4499 0.0000
vt 0.9210 0.4988 0.0000
vt 0.9210 0.5477 0.0000
vt 0.5056 0.0481 0.0000
vt 0.5053 0.0481 0.0000
vt 0.5053 0.0440 0.0000
vt 0.5050 0.0481 0.0000
vt 0.7925 0.5535 0.0000
vt 0.7853 0.5535 0.0000
vt 0.7852 0.4436 0.0000
vt 0.7924 0.4436 0.0000
vt 0.9144 0.5535 0.0000
vt 0.9210 0.5535 0.0000
vt 0.9143 0.4436 0.0000
vt 0.9209 0.4436 0.0000
vt 0.5480 0.8343 0.0000
vt 0.5059 0.8339 0.0000
vt 0.5060 0.8273 0.0000
vt 0.5530 0.8278 0.0000
vt 0.4639 0.8334 0.0000
vt 0.4589 0.8268 0.0000
vt 0.6261 0.2774 0.0000
vt 0.6760 0.2779 0.0000
vt 0.6261 0.2700 0.0000
vt 0.6707 0.2704 0.0000
vt 0.5763 0.2769 0.0000
vt 0.5816 0.2695 0.0000
vt 0.3845 0.0597 0.0000
vt 0.4133 0.0806 0.0000
vt 0.3836 0.0864 0.0000
vt 0.3544 0.0765 0.0000
vt 0.3428 0.0568 0.0000
vt 0.3558 0.0354 0.0000
vt 0.3856 0.0286 0.0000
vt 0.4147 0.0395 0.0000
vt 0.4262 0.0626 0.0000
vt 0.2104 1.0000 0.0000
vt 0.1631 1.0000 0.0000
vt 0.1634 0.9142 0.0000
vt 0.2073 0.9108 0.0000
vt 0.1159 0.9998 0.0000
vt 0.1195 0.9106 0.0000
vt 0.0875 0.9994 0.0000
vt 0.0913 0.9017 0.0000
vt 0.0592 0.9983 0.0000
vt 0.0630 0.8931 0.0000
vt 0.0129 0.9962 0.0000
vt 0.0129 0.8881 0.0000
vt 0.3159 0.9968 0.0000
vt 0.2671 0.9988 0.0000
vt 0.2640 0.8935 0.0000
vt 0.3159 0.8888 0.0000
vt 0.2388 0.9997 0.0000
vt 0.2356 0.9020 0.0000
vt 0.2023 0.5312 0.0000
vt 0.1642 0.5310 0.0000
vt 0.1648 0.1454 0.0000
vt 0.2047 0.1465 0.0000
vt 0.1260 0.5310 0.0000
vt 0.1248 0.1463 0.0000
vt 0.0890 0.5309 0.0000
vt 0.0924 0.1477 0.0000
vt 0.0528 0.5305 0.0000
vt 0.0612 0.1486 0.0000
vt 0.0129 0.5306 0.0000
vt 0.0129 0.1500 0.0000
vt 0.3159 0.5312 0.0000
vt 0.2755 0.5310 0.0000
vt 0.2683 0.1490 0.0000
vt 0.3159 0.1506 0.0000
vt 0.2393 0.5312 0.0000
vt 0.2372 0.1480 0.0000
vt 0.2157 0.0226 0.0000
vt 0.1653 0.0211 0.0000
vt 0.1653 0.0000 0.0000
vt 0.2144 0.0012 0.0000
vt 0.1148 0.0224 0.0000
vt 0.1162 0.0010 0.0000
vt 0.0855 0.0240 0.0000
vt 0.0859 0.0025 0.0000
vt 0.0561 0.0368 0.0000
vt 0.0542 0.0136 0.0000
vt 0.0129 0.0421 0.0000
vt 0.0129 0.0179 0.0000
vt 0.3159 0.0186 0.0000
vt 0.3159 0.0428 0.0000
vt 0.2743 0.0373 0.0000
vt 0.2763 0.0141 0.0000
vt 0.2450 0.0243 0.0000
vt 0.2447 0.0029 0.0000
vt 0.2050 0.8712 0.0000
vt 0.1635 0.8759 0.0000
vt 0.1220 0.8710 0.0000
vt 0.0923 0.8614 0.0000
vt 0.0626 0.8545 0.0000
vt 0.0129 0.8519 0.0000
vt 0.3159 0.8525 0.0000
vt 0.2645 0.8549 0.0000
vt 0.2348 0.8617 0.0000
# 220 texture coords

o Axe_Cube
g Axe_Cube
usemtl Material_01
s 1
f 1/1/1 2/2/2 3/3/3 4/4/4 
f 5/5/5 6/6/6 7/7/7 8/8/8 
f 7/7/7 6/6/6 9/9/9 10/10/10 
f 3/3/3 11/11/11 12/12/12 4/4/4 
f 11/11/11 13/13/13 14/14/14 12/12/12 
f 10/10/10 9/9/9 15/15/15 16/16/16 
f 16/16/16 15/15/15 17/17/17 18/18/18 
f 13/13/13 19/19/19 20/20/20 14/14/14 
f 19/19/19 21/21/21 22/22/22 20/20/20 
f 18/18/18 17/17/17 23/23/23 24/24/24 
f 24/24/24 23/23/23 25/25/25 26/26/26 
f 21/21/21 27/27/27 28/28/28 22/22/22 
f 27/27/27 29/29/29 30/30/30 28/28/28 
f 26/26/26 25/25/25 31/31/31 32/32/32 
f 31/31/31 33/33/33 34/34/34 32/32/32 
f 30/30/30 29/29/29 35/35/35 36/36/36 
f 37/37/37 38/38/38 39/39/39 40/40/40 
f 37/37/37 1/1/1 4/4/4 38/38/38 
f 41/41/41 42/42/42 6/6/6 5/5/5 
f 43/43/43 44/44/44 42/42/42 41/41/41 
f 42/42/42 45/45/45 9/9/9 6/6/6 
f 44/44/44 46/46/46 45/45/45 42/42/42 
f 39/39/39 38/38/38 47/47/47 48/48/48 
f 38/38/38 4/4/4 12/12/12 47/47/47 
f 48/48/48 47/47/47 49/49/49 50/50/50 
f 47/47/47 12/12/12 14/14/14 49/49/49 
f 45/45/45 51/51/51 15/15/15 9/9/9 
f 46/46/46 50/52/50 51/51/51 45/45/45 
f 15/15/15 51/51/51 52/53/52 17/17/17 
f 51/51/51 50/52/50 53/54/53 52/53/52 
f 49/49/49 54/55/54 53/56/53 50/50/50 
f 14/14/14 20/20/20 54/55/54 49/49/49 
f 54/55/54 55/57/55 56/58/56 53/56/53 
f 20/20/20 22/22/22 55/57/55 54/55/54 
f 17/17/17 52/53/52 57/59/57 23/23/23 
f 52/53/52 53/54/53 56/60/56 57/59/57 
f 23/23/23 57/59/57 58/61/58 25/25/25 
f 57/59/57 56/60/56 59/62/59 58/61/58 
f 55/57/55 60/63/60 59/64/59 56/58/56 
f 22/22/22 28/28/28 60/63/60 55/57/55 
f 60/63/60 61/65/61 62/66/62 59/64/59 
f 28/28/28 30/30/30 61/65/61 60/63/60 
f 25/25/25 58/61/58 63/67/63 31/31/31 
f 58/61/58 59/62/59 62/68/62 63/67/63 
f 31/31/31 63/67/63 64/69/64 33/33/33 
f 63/67/63 62/68/62 65/70/65 64/69/64 
f 61/65/61 66/71/66 65/72/65 62/66/62 
f 30/30/30 36/36/36 66/71/66 61/65/61 
f 67/73/67 68/74/68 44/75/44 43/76/43 
f 67/73/67 40/77/40 39/78/39 68/74/68 
f 69/79/69 70/80/70 3/81/3 2/82/2 
f 69/79/69 8/83/8 7/84/7 70/80/70 
f 70/80/70 71/85/71 11/86/11 3/81/3 
f 70/80/70 7/84/7 10/87/10 71/85/71 
f 68/74/68 72/88/72 46/89/46 44/75/44 
f 68/74/68 39/78/39 48/90/48 72/88/72 
f 46/89/46 72/88/72 50/91/50 
f 72/88/72 48/90/48 50/91/50 
f 71/85/71 73/92/73 13/93/13 11/86/11 
f 71/85/71 10/87/10 16/94/16 73/92/73 
f 73/92/73 74/95/74 19/96/19 13/93/13 
f 73/92/73 16/94/16 18/97/18 74/95/74 
f 74/95/74 75/98/75 21/99/21 19/96/19 
f 74/95/74 18/97/18 24/100/24 75/98/75 
f 75/98/75 76/101/76 27/102/27 21/99/21 
f 24/100/24 26/103/26 76/101/76 75/98/75 
f 76/101/76 77/104/77 29/105/29 27/102/27 
f 26/103/26 32/106/32 77/104/77 76/101/76 
f 77/104/77 78/107/78 35/108/35 29/105/29 
f 32/106/32 34/109/34 78/107/78 77/104/77 
f 79/110/79 80/111/80 81/112/81 82/113/82 
f 81/112/81 83/114/83 84/115/84 82/113/82 
f 33/116/33 85/117/85 78/107/78 34/109/34 
f 36/118/36 35/108/35 78/107/78 85/117/85 
f 86/119/86 81/112/81 80/111/80 87/120/87 
f 88/121/88 83/114/83 81/112/81 86/119/86 
f 89/122/89 90/123/90 86/119/86 87/120/87 
f 91/124/91 88/121/88 86/119/86 90/123/90 
f 66/125/66 92/126/92 65/127/65 
f 92/126/92 64/128/64 65/127/65 
f 64/128/64 92/126/92 85/117/85 33/116/33 
f 66/125/66 36/118/36 85/117/85 92/126/92 
f 93/129/93 94/130/94 84/115/84 83/114/83 
f 5/5/5 8/8/8 94/130/94 93/129/93 
f 79/110/79 95/131/95 96/132/96 80/111/80 
f 2/2/2 1/1/1 96/132/96 95/131/95 
f 97/133/93 93/129/93 83/114/83 88/121/88 
f 41/41/41 5/5/5 93/129/93 97/133/93 
f 91/124/91 98/134/97 97/133/93 88/121/88 
f 43/43/43 41/41/41 97/133/93 98/134/97 
f 99/135/96 100/136/98 89/122/89 87/120/87 
f 37/37/37 40/40/40 100/136/98 99/135/96 
f 96/132/96 99/135/96 87/120/87 80/111/80 
f 1/1/1 37/37/37 99/135/96 96/132/96 
f 79/137/79 82/138/82 101/139/99 95/140/95 
f 69/79/69 2/82/2 95/140/95 101/139/99 
f 84/141/84 94/142/94 101/139/99 82/138/82 
f 8/83/8 69/79/69 101/139/99 94/142/94 
f 102/143/100 100/144/98 40/77/40 67/73/67 
f 102/143/100 90/145/90 89/146/89 100/144/98 
f 98/147/97 102/143/100 67/73/67 43/76/43 
f 91/148/91 90/145/90 102/143/100 98/147/97 
f 103/149/101 104/150/102 105/151/103 
f 103/149/101 105/151/103 106/152/104 
f 103/149/101 106/152/104 107/153/105 
f 103/149/101 107/153/105 108/154/106 
f 103/149/101 108/154/106 109/155/107 
f 103/149/101 109/155/107 110/156/108 
f 103/149/101 110/156/108 111/157/109 
f 103/149/101 111/157/109 104/150/102 
f 112/158/110 113/159/111 114/160/112 115/161/113 
f 114/160/112 113/159/111 116/162/114 117/163/115 
f 117/163/115 116/162/114 118/164/116 119/165/117 
f 119/165/117 118/164/116 120/166/118 121/167/119 
f 121/167/119 120/166/118 122/168/120 123/169/121 
f 122/170/120 124/171/122 125/172/123 123/173/121 
f 124/171/122 126/174/124 127/175/125 125/172/123 
f 126/174/124 112/158/110 115/161/113 127/175/125 
f 128/176/126 129/177/127 130/178/128 131/179/129 
f 129/177/127 132/180/130 133/181/131 130/178/128 
f 132/180/130 134/182/132 135/183/133 133/181/131 
f 134/182/132 136/184/134 137/185/135 135/183/133 
f 136/184/134 138/186/136 139/187/137 137/185/135 
f 138/188/136 140/189/138 141/190/139 139/191/137 
f 140/189/138 142/192/140 143/193/141 141/190/139 
f 142/192/140 128/176/126 131/179/129 143/193/141 
f 144/194/142 145/195/143 105/196/103 104/197/102 
f 131/179/129 130/178/128 145/195/143 144/194/142 
f 105/196/103 145/195/143 146/198/144 106/199/104 
f 130/178/128 133/181/131 146/198/144 145/195/143 
f 106/199/104 146/198/144 147/200/145 107/201/105 
f 133/181/131 135/183/133 147/200/145 146/198/144 
f 147/200/145 148/202/146 108/203/106 107/201/105 
f 135/183/133 137/185/135 148/202/146 147/200/145 
f 148/202/146 149/204/147 109/205/107 108/203/106 
f 137/185/135 139/187/137 149/204/147 148/202/146 
f 109/206/107 149/207/147 150/208/148 110/209/108 
f 149/207/147 139/191/137 141/190/139 150/208/148 
f 110/209/108 150/208/148 151/210/149 111/211/109 
f 150/208/148 141/190/139 143/193/141 151/210/149 
f 151/210/149 144/194/142 104/197/102 111/211/109 
f 143/193/141 131/179/129 144/194/142 151/210/149 
f 152/212/150 153/213/151 129/177/127 128/176/126 
f 115/161/113 114/160/112 153/213/151 152/212/150 
f 129/177/127 153/213/151 154/214/152 132/180/130 
f 153/213/151 114/160/112 117/163/115 154/214/152 
f 132/180/130 154/214/152 155/215/153 134/182/132 
f 154/214/152 117/163/115 119/165/117 155/215/153 
f 134/182/132 155/215/153 156/216/154 136/184/134 
f 155/215/153 119/165/117 121/167/119 156/216/154 
f 136/184/134 156/216/154 157/217/155 138/186/136 
f 156/216/154 121/167/119 123/169/121 157/217/155 
f 157/218/155 158/219/156 140/189/138 138/188/136 
f 123/173/121 125/172/123 158/219/156 157/218/155 
f 158/219/156 159/220/157 142/192/140 140/189/138 
f 125/172/123 127/175/125 159/220/157 158/219/156 
f 159/220/157 152/212/150 128/176/126 142/192/140 
f 127/175/125 115/161/113 152/212/150 159/220/157 
# 146 polygons - 12 triangles

