# 3ds Max Wavefront OBJ Exporter v0.97b - (c)2007 guruware
# File Created: 24.04.2018 20:38:23

mtllib spearBasic.mtl

#
# object Cylinder01
#

v  -0.0000 -0.0034 -2.0743
v  -0.0000 1.5626 -1.0371
v  -191.4939 1.5626 -1.0371
v  -191.4939 -0.0034 -2.0742
v  0.0000 1.5626 1.0371
v  -191.4939 1.5626 1.0372
v  0.0000 -0.0034 2.0743
v  -191.4939 -0.0034 2.0743
v  -196.7778 2.1522 -1.4284
v  -196.7778 -0.0034 -2.8569
v  -196.7778 2.1522 1.4285
v  -196.7778 -0.0034 2.8570
v  -198.0627 1.5626 -1.0371
v  -198.0627 -0.0034 -2.0742
v  -198.0627 1.5626 1.0372
v  -198.0627 -0.0034 2.0743
v  -201.0064 -0.0034 -6.1545
v  -201.0064 2.7085 0.0001
v  -201.0064 -0.0034 6.1546
v  -233.7352 -0.0034 0.0001
v  -191.4939 -1.5693 -1.0371
v  -0.0000 -1.5693 -1.0371
v  -191.4939 -1.5693 1.0372
v  0.0000 -1.5693 1.0371
v  -196.7778 -2.1589 -1.4284
v  -196.7778 -2.1589 1.4285
v  -198.0627 -1.5693 -1.0371
v  -198.0627 -1.5693 1.0372
v  -201.0064 -2.7152 0.0001
# 29 vertices

vn 0.6014 0.0001 -0.7989
vn 0.6145 0.6950 -0.3733
vn 0.0676 0.8799 -0.4703
vn 0.0754 0.0000 -0.9972
vn 0.6145 0.6950 0.3733
vn 0.0676 0.8799 0.4703
vn 0.6014 0.0000 0.7989
vn 0.0754 0.0000 0.9972
vn -0.1687 0.8651 -0.4723
vn -0.1787 -0.0000 -0.9839
vn -0.1687 0.8651 0.4723
vn -0.1787 0.0000 0.9839
vn -0.0292 0.9151 -0.4023
vn 0.2686 -0.0000 -0.9632
vn -0.0292 0.9151 0.4023
vn 0.2686 0.0000 0.9632
vn 0.2256 -0.0000 -0.9742
vn 0.0867 0.9962 -0.0000
vn 0.2256 0.0000 0.9742
vn -1.0000 -0.0000 0.0000
vn 0.0676 -0.8799 -0.4703
vn 0.6145 -0.6950 -0.3732
vn 0.0676 -0.8799 0.4703
vn 0.6145 -0.6950 0.3733
vn -0.1687 -0.8651 -0.4723
vn -0.1687 -0.8651 0.4723
vn -0.0292 -0.9151 -0.4023
vn -0.0292 -0.9151 0.4023
vn 0.0867 -0.9962 0.0000
# 29 vertex normals

vt 0.0595 0.0232 0.9995
vt 0.0423 0.0376 0.0005
vt 0.8129 0.9560 0.0005
vt 0.8301 0.9415 0.9995
vt 0.0221 0.0546 0.0005
vt 0.7926 0.9729 0.0005
vt 0.0049 0.0690 0.9995
vt 0.7754 0.9874 0.9995
vt 0.9184 0.0150 0.9995
vt 0.8718 0.0150 0.4232
vt 0.8809 0.1365 0.2057
vt 0.9362 0.1365 0.9995
vt 0.8240 0.0150 0.4232
vt 0.8150 0.1365 0.2057
vt 0.7774 0.0150 0.9995
vt 0.7596 0.1365 0.9995
vt 0.8718 0.1660 0.4232
vt 0.9287 0.1660 0.9995
vt 0.8240 0.1660 0.4232
vt 0.7671 0.1660 0.9995
vt 0.9899 0.2337 0.9995
vt 0.8479 0.2337 0.0005
vt 0.7059 0.2337 0.9995
vt 0.8479 0.9860 0.9995
vt 0.4530 0.1586 0.5000
vt 0.5011 0.2115 0.5000
vt 0.5906 0.2115 0.5000
vt 0.6320 0.1586 0.5000
# 28 texture coords

o Cylinder01
g Cylinder01
usemtl 01___Default
s 1
f 4/4/4 3/3/3 2/2/2 1/1/1 
s 2
f 3/3/3 6/6/6 5/5/5 2/2/2 
s 1
f 6/6/6 8/8/8 7/7/7 5/5/5 
f 10/12/10 9/11/9 3/10/3 4/9/4 
s 2
f 9/11/9 11/14/11 6/13/6 3/10/3 
s 1
f 11/14/11 12/16/12 8/15/8 6/13/6 
s 4
f 14/18/14 13/17/13 9/11/9 10/12/10 
s 8
f 13/17/13 15/19/15 11/14/11 9/11/9 
s 4
f 15/19/15 16/20/16 12/16/12 11/14/11 
s 1
f 17/21/17 13/17/13 14/18/14 
s 2
f 18/22/18 15/19/15 13/17/13 
f 18/22/18 19/23/19 15/19/15 
f 20/24/20 18/22/18 17/21/17 
f 20/24/20 19/23/19 18/22/18 
s 1
f 19/23/19 16/20/16 15/19/15 
s 2
f 17/21/17 18/22/18 13/17/13 
s 4
f 1/28/1 2/27/2 5/26/5 7/25/7 
s 2
f 22/2/22 21/3/21 4/4/4 1/1/1 
s 1
f 24/5/24 23/6/23 21/3/21 22/2/22 
s 2
f 7/7/7 8/8/8 23/6/23 24/5/24 
f 21/10/21 25/11/25 10/12/10 4/9/4 
s 1
f 23/13/23 26/14/26 25/11/25 21/10/21 
s 2
f 8/15/8 12/16/12 26/14/26 23/13/23 
s 8
f 25/11/25 27/17/27 14/18/14 10/12/10 
s 4
f 26/14/26 28/19/28 27/17/27 25/11/25 
s 8
f 12/16/12 16/20/16 28/19/28 26/14/26 
s 16
f 27/17/27 17/21/17 14/18/14 
s 32
f 28/19/28 29/22/29 27/17/27 
f 19/23/19 29/22/29 28/19/28 
f 29/22/29 20/24/20 17/21/17 
f 19/23/19 20/24/20 29/22/29 
s 16
f 16/20/16 19/23/19 28/19/28 
s 32
f 29/22/29 17/21/17 27/17/27 
s 4
f 24/26/24 22/27/22 1/28/1 7/25/7 
# 20 polygons - 14 triangles

