# 3ds Max Wavefront OBJ Exporter v0.97b - (c)2007 guruware
# File Created: 24.04.2018 21:09:43

mtllib pike01.mtl

#
# object Cylinder01
#

v  0.1481 -1.2920 1.2920
v  0.1481 -1.8272 -0.0000
v  1.3818 -2.7850 -0.0000
v  1.3818 -1.9693 1.9692
v  0.1481 -1.2920 -1.2921
v  1.3818 -1.9693 -1.9693
v  0.1481 -0.0000 -1.8272
v  1.3818 -0.0000 -2.7850
v  0.1481 1.2920 -1.2921
v  1.3818 1.9693 -1.9693
v  0.1481 1.8272 -0.0000
v  1.3818 2.7850 -0.0000
v  0.1481 1.2920 1.2920
v  1.3818 1.9693 1.9692
v  0.1481 -0.0000 1.8272
v  1.3818 -0.0000 2.7849
v  50.2263 -1.9270 1.9270
v  50.2263 -2.7252 -0.0000
v  51.2420 -1.9510 -0.0000
v  51.2420 -1.3796 1.3796
v  50.2263 -1.9270 -1.9270
v  51.2420 -1.3796 -1.3796
v  50.2263 -0.0000 -2.7252
v  51.2420 -0.0000 -1.9511
v  50.2263 1.9270 -1.9270
v  51.2420 1.3796 -1.3796
v  50.2263 2.7252 -0.0000
v  51.2420 1.9510 -0.0000
v  50.2263 1.9270 1.9270
v  51.2420 1.3796 1.3796
v  50.2263 -0.0000 2.7252
v  51.2420 -0.0000 1.9510
v  176.1122 -1.8821 1.8821
v  176.1122 -2.6617 0.0000
v  177.4366 -3.2716 0.0000
v  177.4366 -2.3134 2.3134
v  176.1122 -1.8821 -1.8821
v  177.4366 -2.3134 -2.3134
v  176.1122 0.0000 -2.6617
v  177.4366 0.0000 -3.2716
v  176.1122 1.8821 -1.8821
v  177.4366 2.3134 -2.3134
v  176.1122 2.6617 0.0000
v  177.4366 3.2716 0.0000
v  176.1122 1.8821 1.8821
v  177.4366 2.3134 2.3134
v  176.1122 -0.0000 2.6617
v  177.4366 -0.0000 3.2716
v  178.7611 -2.1400 0.0000
v  178.7611 -1.5132 1.5132
v  178.7611 -1.5132 -1.5132
v  178.7611 -0.0000 -2.1400
v  178.7611 1.5132 -1.5132
v  178.7611 2.1400 0.0000
v  178.7611 1.5132 1.5132
v  178.7611 -0.0000 2.1400
v  158.6076 -1.9342 -0.0000
v  160.0459 -2.9023 -0.0000
v  160.0459 -2.0522 2.0522
v  158.6076 -1.3677 1.3677
v  158.6076 -1.3677 -1.3677
v  160.0459 -2.0522 -2.0522
v  158.6076 -0.0000 -1.9342
v  160.0459 0.0000 -2.9023
v  158.6076 1.3677 -1.3677
v  160.0459 2.0522 -2.0522
v  158.6076 1.9342 -0.0000
v  160.0459 2.9023 -0.0000
v  158.6076 1.3677 1.3677
v  160.0459 2.0522 2.0522
v  158.6076 -0.0000 1.9342
v  160.0459 -0.0000 2.9023
v  161.1973 -2.4057 -0.0000
v  161.1973 -1.7011 1.7011
v  161.1973 -1.7011 -1.7011
v  161.1973 -0.0000 -2.4057
v  161.1973 1.7011 -1.7011
v  161.1973 2.4057 -0.0000
v  161.1973 1.7011 1.7011
v  161.1973 -0.0000 2.4057
v  186.7104 -0.0151 1.0535
v  190.6574 0.0000 1.2062
v  190.6574 1.3887 1.3887
v  185.5689 1.1223 1.1223
v  185.5689 -1.1223 1.1223
v  190.6574 -1.3887 1.3887
v  203.8134 0.0000 2.3070
v  203.8134 3.1720 3.1721
v  203.8134 -3.1720 3.1721
v  214.0034 0.0000 1.1640
v  214.0034 1.6005 1.6005
v  214.0034 -1.6005 1.6005
v  224.8625 0.0000 0.0000
v  187.2360 1.6331 3.7292
v  188.1812 -0.0151 3.1281
v  184.5410 -0.0151 5.0896
v  187.2360 -1.6633 3.7292
v  191.3215 2.3921 5.7002
v  191.7776 -0.0151 4.7797
v  190.5184 -0.0151 8.6023
v  191.3215 -2.4223 5.7002
v  199.7850 -0.0151 5.6502
v  192.4043 -0.0160 7.2589
v  186.7103 -1.0535 0.0151
v  185.5689 -1.1223 -1.1223
v  190.6574 -1.3887 -1.3887
v  190.6574 -1.2062 0.0000
v  203.8134 -3.1720 -3.1720
v  203.8134 -2.3070 0.0000
v  214.0034 -1.6005 -1.6005
v  214.0034 -1.1640 0.0000
v  188.1812 -3.1281 0.0151
v  187.2360 -3.7292 -1.6331
v  184.5409 -5.0896 0.0151
v  187.2360 -3.7292 1.6633
v  191.7776 -4.7797 0.0151
v  191.3215 -5.7002 -2.3921
v  190.5184 -8.6023 0.0151
v  191.3215 -5.7002 2.4223
v  199.7850 -5.6502 0.0151
v  192.4043 -7.2589 0.0160
v  186.7103 -0.0151 -1.0535
v  185.5689 1.1223 -1.1223
v  190.6574 1.3887 -1.3887
v  190.6574 -0.0000 -1.2062
v  203.8134 3.1720 -3.1720
v  203.8134 -0.0000 -2.3070
v  214.0034 1.6005 -1.6005
v  214.0034 0.0000 -1.1640
v  188.1812 -0.0151 -3.1281
v  187.2360 1.6331 -3.7292
v  184.5409 -0.0151 -5.0896
v  187.2360 -1.6633 -3.7292
v  191.7776 -0.0151 -4.7797
v  191.3215 2.3921 -5.7002
v  190.5184 -0.0151 -8.6023
v  191.3215 -2.4223 -5.7002
v  199.7850 -0.0151 -5.6502
v  192.4043 -0.0160 -7.2589
v  186.7103 1.0535 -0.0151
v  190.6574 1.2062 0.0000
v  203.8134 2.3070 0.0000
v  214.0034 1.1640 0.0000
v  188.1812 3.1281 -0.0151
v  187.2360 3.7292 1.6331
v  184.5409 5.0896 -0.0151
v  187.2360 3.7292 -1.6633
v  191.7776 4.7797 -0.0151
v  191.3215 5.7002 2.3921
v  190.5184 8.6023 -0.0151
v  191.3215 5.7002 -2.4223
v  199.7850 5.6502 -0.0151
v  192.4043 7.2589 -0.0160
v  84.8217 -1.9477 -0.0000
v  84.8217 -1.3772 1.3772
v  84.8217 -1.3772 -1.3772
v  84.8217 -0.0000 -1.9477
v  84.8217 1.3772 -1.3772
v  84.8217 1.9477 -0.0000
v  84.8217 1.3772 1.3772
v  84.8217 -0.0000 1.9476
v  2.4556 -2.3254 -0.0000
v  2.4556 -1.6443 1.6443
v  2.4556 -1.6443 -1.6444
v  2.4556 -0.0000 -2.3255
v  2.4556 1.6443 -1.6444
v  2.4556 2.3254 -0.0000
v  2.4556 1.6443 1.6443
v  2.4556 -0.0000 2.3254
v  48.8667 -2.2618 -0.0000
v  48.8667 -1.5993 1.5993
v  48.8667 -1.5993 -1.5993
v  48.8667 -0.0000 -2.2618
v  48.8667 1.5993 -1.5993
v  48.8667 2.2618 -0.0000
v  48.8667 1.5993 1.5993
v  48.8667 -0.0000 2.2618
v  142.7678 -1.9373 -0.0000
v  142.7678 -1.3699 1.3699
v  142.7678 -1.3699 -1.3699
v  142.7678 -0.0000 -1.9373
v  142.7678 1.3699 -1.3699
v  142.7678 1.9373 -0.0000
v  142.7678 1.3699 1.3699
v  142.7678 -0.0000 1.9373
# 185 vertices

vn -0.9988 -0.0352 0.0352
vn -0.9988 -0.0498 -0.0000
vn -0.0264 -0.9997 0.0000
vn -0.0264 -0.7069 0.7069
vn -0.9988 -0.0352 -0.0352
vn -0.0264 -0.7069 -0.7069
vn -0.9988 0.0000 -0.0498
vn -0.0264 -0.0000 -0.9997
vn -0.9988 0.0352 -0.0352
vn -0.0264 0.7069 -0.7069
vn -0.9988 0.0498 -0.0000
vn -0.0264 0.9997 -0.0000
vn -0.9988 0.0352 0.0352
vn -0.0264 0.7069 0.7069
vn -0.9988 -0.0000 0.0498
vn -0.0264 -0.0000 0.9997
vn 0.0406 -0.7065 0.7065
vn 0.0406 -0.9992 0.0000
vn 0.7723 -0.6353 0.0000
vn 0.7723 -0.4492 0.4492
vn 0.0406 -0.7065 -0.7065
vn 0.7723 -0.4492 -0.4492
vn 0.0406 0.0000 -0.9992
vn 0.7723 -0.0000 -0.6353
vn 0.0406 0.7065 -0.7065
vn 0.7723 0.4492 -0.4492
vn 0.0406 0.9992 0.0000
vn 0.7723 0.6353 -0.0000
vn 0.0406 0.7065 0.7065
vn 0.7723 0.4492 0.4492
vn 0.0406 0.0000 0.9992
vn 0.7723 0.0000 0.6353
vn -0.8252 -0.3994 0.3994
vn -0.8252 -0.5648 -0.0000
vn 0.0252 -0.9997 0.0000
vn 0.0252 -0.7069 0.7069
vn -0.8252 -0.3994 -0.3994
vn 0.0252 -0.7069 -0.7069
vn -0.8252 -0.0000 -0.5648
vn 0.0252 0.0000 -0.9997
vn -0.8252 0.3994 -0.3994
vn 0.0252 0.7069 -0.7069
vn -0.8252 0.5648 -0.0000
vn 0.0252 0.9997 -0.0000
vn -0.8252 0.3994 0.3994
vn 0.0252 0.7069 0.7069
vn -0.8252 -0.0000 0.5648
vn 0.0252 -0.0000 0.9997
vn 0.4258 -0.9048 -0.0076
vn 0.9572 -0.2046 0.2046
vn 0.9572 -0.2046 -0.2046
vn 0.4258 0.0076 -0.9048
vn 0.9572 0.2046 -0.2046
vn 0.4258 0.9048 0.0076
vn 0.9572 0.2046 0.2046
vn 0.4258 0.0076 0.9048
vn -0.7664 -0.6424 -0.0000
vn -0.0209 -0.9998 0.0000
vn -0.0209 -0.7070 0.7070
vn -0.7664 -0.4542 0.4542
vn -0.7664 -0.4542 -0.4542
vn -0.0209 -0.7070 -0.7070
vn -0.7664 -0.0000 -0.6424
vn -0.0209 -0.0000 -0.9998
vn -0.7664 0.4542 -0.4542
vn -0.0209 0.7070 -0.7070
vn -0.7664 0.6424 0.0000
vn -0.0209 0.9998 0.0000
vn -0.7664 0.4542 0.4542
vn -0.0209 0.7070 0.7070
vn -0.7664 0.0000 0.6424
vn -0.0209 -0.0000 0.9998
vn 0.6506 -0.7594 0.0000
vn 0.6506 -0.5370 0.5370
vn 0.6506 -0.5370 -0.5370
vn 0.6506 -0.0000 -0.7594
vn 0.6506 0.5370 -0.5370
vn 0.6506 0.7594 0.0000
vn 0.6506 0.5370 0.5370
vn 0.6506 0.0000 0.7594
vn 0.4631 0.0036 0.8863
vn -0.6703 -0.0021 0.7421
vn -0.9196 0.2778 0.2778
vn 0.2867 0.6774 0.6774
vn 0.2890 -0.6769 0.6769
vn -0.9196 -0.2778 0.2778
vn 0.0781 0.0000 0.9969
vn 0.0125 0.7071 0.7071
vn 0.0125 -0.7071 0.7071
vn 0.8695 0.0000 0.4939
vn 0.9612 0.1951 0.1951
vn 0.9612 -0.1951 0.1951
vn 1.0000 0.0000 -0.0000
vn -0.0373 0.9179 -0.3951
vn 0.9969 0.0000 -0.0791
vn -0.9940 -0.0001 0.1095
vn -0.0379 -0.9159 -0.3997
vn 0.0130 0.9973 0.0721
vn 0.9599 -0.0000 -0.2803
vn 0.0016 0.0001 1.0000
vn 0.0130 -0.9973 0.0720
vn 0.9929 0.0000 -0.1191
vn 0.9891 -0.0001 0.1474
vn 0.4631 -0.8863 -0.0036
vn 0.2878 -0.6778 -0.6766
vn -0.9196 -0.2778 -0.2778
vn -0.6703 -0.7421 0.0021
vn 0.0125 -0.7071 -0.7071
vn 0.0781 -0.9969 0.0000
vn 0.9612 -0.1951 -0.1951
vn 0.8695 -0.4939 -0.0000
vn 0.9969 0.0791 0.0000
vn -0.0373 0.3951 -0.9179
vn -0.9940 -0.1095 0.0001
vn -0.0379 0.3997 0.9159
vn 0.9599 0.2803 0.0000
vn 0.0130 -0.0721 -0.9973
vn 0.0016 -1.0000 -0.0001
vn 0.0130 -0.0720 0.9973
vn 0.9929 0.1191 -0.0000
vn 0.9891 -0.1474 0.0001
vn 0.4631 0.0036 -0.8863
vn 0.2878 0.6766 -0.6778
vn -0.9196 0.2778 -0.2778
vn -0.6703 -0.0021 -0.7421
vn 0.0125 0.7071 -0.7071
vn 0.0781 -0.0000 -0.9969
vn 0.9612 0.1951 -0.1951
vn 0.8695 -0.0000 -0.4939
vn 0.9969 0.0000 0.0791
vn -0.0373 0.9179 0.3951
vn -0.9940 -0.0001 -0.1095
vn -0.0379 -0.9159 0.3997
vn 0.9599 0.0000 0.2803
vn 0.0130 0.9973 -0.0721
vn 0.0016 0.0001 -1.0000
vn 0.0130 -0.9973 -0.0720
vn 0.9929 0.0000 0.1191
vn 0.9891 -0.0001 -0.1474
vn 0.4631 0.8863 0.0036
vn -0.6703 0.7421 -0.0021
vn 0.0781 0.9969 0.0000
vn 0.8695 0.4939 -0.0000
vn 0.9969 -0.0791 0.0000
vn -0.0373 -0.3951 0.9179
vn -0.9940 0.1095 -0.0001
vn -0.0379 -0.3997 -0.9159
vn 0.9599 -0.2803 0.0000
vn 0.0130 0.0721 0.9973
vn 0.0016 1.0000 0.0001
vn 0.0130 0.0720 -0.9973
vn 0.9929 -0.1191 0.0000
vn 0.9891 0.1474 -0.0001
vn 0.0022 -1.0000 -0.0000
vn 0.0022 -0.7071 0.7071
vn 0.0022 -0.7071 -0.7071
vn 0.0022 -0.0000 -1.0000
vn 0.0022 0.7071 -0.7071
vn 0.0022 1.0000 0.0000
vn 0.0022 0.7071 0.7071
vn 0.0022 -0.0000 1.0000
vn 0.7521 -0.6590 0.0000
vn 0.7521 -0.4660 0.4660
vn 0.7521 -0.4660 -0.4660
vn 0.7521 0.0000 -0.6590
vn 0.7521 0.4660 -0.4660
vn 0.7521 0.6590 -0.0000
vn 0.7521 0.4660 0.4660
vn 0.7521 0.0000 0.6590
vn -0.7221 -0.6918 0.0000
vn -0.7221 -0.4892 0.4892
vn -0.7221 -0.4892 -0.4892
vn -0.7221 0.0000 -0.6918
vn -0.7221 0.4892 -0.4892
vn -0.7221 0.6918 0.0000
vn -0.7221 0.4892 0.4892
vn -0.7221 -0.0000 0.6918
vn 0.0030 -1.0000 0.0000
vn 0.0030 -0.7071 0.7071
vn 0.0030 -0.7071 -0.7071
vn 0.0030 0.0000 -1.0000
vn 0.0030 0.7071 -0.7071
vn 0.0030 1.0000 0.0000
vn 0.0030 0.7071 0.7071
vn 0.0030 0.0000 1.0000
# 185 vertex normals

vt 0.3769 0.1988 0.9990
vt 0.4100 0.1988 0.9990
vt 0.4100 0.2200 0.9432
vt 0.3769 0.2200 0.9432
vt 0.4432 0.1988 0.9990
vt 0.4432 0.2200 0.9432
vt 0.4763 0.1988 0.9990
vt 0.4763 0.2200 0.9432
vt 0.2114 0.1988 0.9990
vt 0.2445 0.1988 0.9990
vt 0.2445 0.2200 0.9432
vt 0.2114 0.2200 0.9432
vt 0.2776 0.1988 0.9990
vt 0.2776 0.2200 0.9432
vt 0.3107 0.1988 0.9990
vt 0.3107 0.2200 0.9432
vt 0.3438 0.1988 0.9990
vt 0.3438 0.2200 0.9432
vt 0.3769 0.9656 0.7007
vt 0.4100 0.9656 0.7007
vt 0.4100 0.9873 0.7006
vt 0.3769 0.9873 0.7006
vt 0.4432 0.9656 0.7007
vt 0.4432 0.9873 0.7006
vt 0.4763 0.9656 0.7007
vt 0.4763 0.9873 0.7006
vt 0.2114 0.9656 0.7007
vt 0.2445 0.9656 0.7007
vt 0.2445 0.9873 0.7006
vt 0.2114 0.9873 0.7006
vt 0.2776 0.9656 0.7007
vt 0.2776 0.9873 0.7006
vt 0.3107 0.9656 0.7007
vt 0.3107 0.9873 0.7006
vt 0.3438 0.9656 0.7007
vt 0.3438 0.9873 0.7006
vt 0.7823 0.8988 0.6535
vt 0.8284 0.8988 0.6535
vt 0.8284 0.9389 0.9990
vt 0.7823 0.9389 0.9990
vt 0.8745 0.8988 0.6535
vt 0.8745 0.9389 0.9990
vt 0.5055 0.8988 0.6535
vt 0.5515 0.8991 0.6535
vt 0.5515 0.9387 0.9990
vt 0.5054 0.9387 0.9990
vt 0.5978 0.8988 0.6535
vt 0.5978 0.9389 0.9990
vt 0.6439 0.8988 0.6535
vt 0.6439 0.9389 0.9990
vt 0.6900 0.8988 0.6535
vt 0.6900 0.9389 0.9990
vt 0.7361 0.8988 0.6535
vt 0.7361 0.9389 0.9990
vt 0.8284 0.9790 0.6535
vt 0.7823 0.9790 0.6535
vt 0.8745 0.9790 0.6535
vt 0.5515 0.9788 0.6535
vt 0.5055 0.9788 0.6535
vt 0.5978 0.9790 0.6535
vt 0.6439 0.9790 0.6535
vt 0.6900 0.9790 0.6535
vt 0.7361 0.9790 0.6535
vt 0.8053 0.1212 -0.2500
vt 0.8205 0.0845 -0.2500
vt 0.8053 0.0478 -0.2500
vt 0.7686 0.0326 -0.2500
vt 0.7318 0.0478 -0.2500
vt 0.7166 0.0845 -0.2500
vt 0.7318 0.1212 -0.2500
vt 0.7686 0.1364 -0.2500
vt 0.8284 0.6390 0.5906
vt 0.8284 0.6825 0.8862
vt 0.7823 0.6825 0.8862
vt 0.7823 0.6390 0.5906
vt 0.8745 0.6390 0.5906
vt 0.8745 0.6825 0.8862
vt 0.5516 0.6390 0.5906
vt 0.5516 0.6825 0.8862
vt 0.5055 0.6825 0.8862
vt 0.5055 0.6390 0.5906
vt 0.5978 0.6390 0.5906
vt 0.5978 0.6825 0.8862
vt 0.6439 0.6390 0.5906
vt 0.6439 0.6825 0.8862
vt 0.6900 0.6390 0.5906
vt 0.6900 0.6825 0.8862
vt 0.7361 0.6390 0.5906
vt 0.7361 0.6825 0.8862
vt 0.8284 0.7174 0.5906
vt 0.7823 0.7174 0.5906
vt 0.8745 0.7174 0.5906
vt 0.5516 0.7174 0.5906
vt 0.5055 0.7174 0.5906
vt 0.5978 0.7174 0.5906
vt 0.6439 0.7174 0.5906
vt 0.6900 0.7174 0.5906
vt 0.7361 0.7174 0.5906
vt 0.9106 0.1500 0.2831
vt 0.9103 0.2095 0.4586
vt 0.8735 0.2095 0.5279
vt 0.8893 0.1328 0.3015
vt 0.9313 0.1328 0.3015
vt 0.9471 0.2095 0.5279
vt 0.9103 0.3541 0.7271
vt 0.8406 0.3541 0.9995
vt 0.9800 0.3541 0.9995
vt 0.9103 0.5344 0.3671
vt 0.8751 0.5344 0.5046
vt 0.9455 0.5344 0.5046
vt 0.9103 0.7265 0.0005
vt 0.5286 0.2970 0.5000
vt 0.5657 0.2491 0.7360
vt 0.6428 0.2874 0.8420
vt 0.6023 0.3301 0.5000
vt 0.6128 0.1071 0.5031
vt 0.6858 0.2136 0.5000
vt 0.5657 0.2491 0.2703
vt 0.6428 0.2874 0.1580
vt 0.7051 0.3414 0.9995
vt 0.6537 0.3739 0.5000
vt 0.7968 0.3246 0.5000
vt 0.7051 0.3414 0.0005
vt 0.7052 0.5244 0.5000
vt 0.7642 0.3754 0.4998
vt 0.9386 0.0302 0.4064
vt 0.9103 0.0302 0.5745
vt 0.8820 0.0302 0.4064
vt 0.1445 0.0110 0.7006
vt 0.1445 0.2070 0.6994
vt 0.1237 0.2070 0.6994
vt 0.1237 0.0110 0.7006
vt 0.1653 0.0110 0.7006
vt 0.1653 0.2070 0.6994
vt 0.1860 0.0110 0.7006
vt 0.1860 0.2070 0.6994
vt 0.0405 0.0110 0.7006
vt 0.0405 0.2070 0.6994
vt 0.0207 0.2070 0.6994
vt 0.0209 0.0110 0.7006
vt 0.0613 0.0110 0.7006
vt 0.0613 0.2070 0.6994
vt 0.0821 0.0110 0.7006
vt 0.0821 0.2070 0.6994
vt 0.1029 0.0110 0.7006
vt 0.1029 0.2070 0.6994
vt 0.4100 0.2421 0.9335
vt 0.3769 0.2421 0.9335
vt 0.4432 0.2421 0.9335
vt 0.4763 0.2421 0.9335
vt 0.2445 0.2421 0.9335
vt 0.2114 0.2421 0.9335
vt 0.2776 0.2421 0.9335
vt 0.3107 0.2421 0.9335
vt 0.3438 0.2421 0.9335
vt 0.4100 0.9447 0.9106
vt 0.3769 0.9447 0.9106
vt 0.4432 0.9447 0.9106
vt 0.4763 0.9447 0.9106
vt 0.2445 0.9447 0.9106
vt 0.2114 0.9447 0.9106
vt 0.2776 0.9447 0.9106
vt 0.3107 0.9447 0.9106
vt 0.3438 0.9447 0.9106
vt 0.1445 0.8071 0.6957
vt 0.1445 0.9903 0.6946
vt 0.1237 0.9903 0.6946
vt 0.1237 0.8071 0.6957
vt 0.1653 0.8071 0.6957
vt 0.1653 0.9903 0.6946
vt 0.1860 0.8071 0.6957
vt 0.1860 0.9903 0.6946
vt 0.0405 0.8071 0.6957
vt 0.0405 0.9903 0.6946
vt 0.0197 0.9903 0.6946
vt 0.0200 0.8071 0.6957
vt 0.0613 0.8071 0.6957
vt 0.0613 0.9903 0.6946
vt 0.0821 0.8071 0.6957
vt 0.0821 0.9903 0.6946
vt 0.1029 0.8071 0.6957
vt 0.1029 0.9903 0.6946
# 182 texture coords

o Cylinder01
g Cylinder01
usemtl 01___Default
s 1
f 1/1/1 2/2/2 3/3/3 4/4/4 
f 2/2/2 5/5/5 6/6/6 3/3/3 
f 5/5/5 7/7/7 8/8/8 6/6/6 
f 7/9/7 9/10/9 10/11/10 8/12/8 
f 9/10/9 11/13/11 12/14/12 10/11/10 
f 11/13/11 13/15/13 14/16/14 12/14/12 
f 13/15/13 15/17/15 16/18/16 14/16/14 
f 15/17/15 1/1/1 4/4/4 16/18/16 
f 17/19/17 18/20/18 19/21/19 20/22/20 
f 18/20/18 21/23/21 22/24/22 19/21/19 
f 21/23/21 23/25/23 24/26/24 22/24/22 
f 23/27/23 25/28/25 26/29/26 24/30/24 
f 25/28/25 27/31/27 28/32/28 26/29/26 
f 27/31/27 29/33/29 30/34/30 28/32/28 
f 29/33/29 31/35/31 32/36/32 30/34/30 
f 31/35/31 17/19/17 20/22/20 32/36/32 
f 33/37/33 34/38/34 35/39/35 36/40/36 
f 34/38/34 37/41/37 38/42/38 35/39/35 
f 37/43/37 39/44/39 40/45/40 38/46/38 
f 39/44/39 41/47/41 42/48/42 40/45/40 
f 41/47/41 43/49/43 44/50/44 42/48/42 
f 43/49/43 45/51/45 46/52/46 44/50/44 
f 45/51/45 47/53/47 48/54/48 46/52/46 
f 47/53/47 33/37/33 36/40/36 48/54/48 
s 2
f 36/40/36 35/39/35 49/55/49 50/56/50 
f 35/39/35 38/42/38 51/57/51 49/55/49 
f 38/46/38 40/45/40 52/58/52 51/59/51 
f 40/45/40 42/48/42 53/60/53 52/58/52 
f 42/48/42 44/50/44 54/61/54 53/60/53 
f 44/50/44 46/52/46 55/62/55 54/61/54 
f 46/52/46 48/54/48 56/63/56 55/62/55 
f 48/54/48 36/40/36 50/56/50 56/63/56 
s 1
f 15/64/15 13/65/13 11/66/11 9/67/9 7/68/7 5/69/5 2/70/2 1/71/1 
f 57/72/57 58/73/58 59/74/59 60/75/60 
f 61/76/61 62/77/62 58/73/58 57/72/57 
f 63/78/63 64/79/64 62/80/62 61/81/61 
f 65/82/65 66/83/66 64/79/64 63/78/63 
f 67/84/67 68/85/68 66/83/66 65/82/65 
f 69/86/69 70/87/70 68/85/68 67/84/67 
f 71/88/71 72/89/72 70/87/70 69/86/69 
f 60/75/60 59/74/59 72/89/72 71/88/71 
s 2
f 73/90/73 34/38/34 33/37/33 74/91/74 
f 75/92/75 37/41/37 34/38/34 73/90/73 
f 76/93/76 39/44/39 37/43/37 75/94/75 
f 77/95/77 41/47/41 39/44/39 76/93/76 
f 78/96/78 43/49/43 41/47/41 77/95/77 
f 79/97/79 45/51/45 43/49/43 78/96/78 
f 80/98/80 47/53/47 45/51/45 79/97/79 
f 74/91/74 33/37/33 47/53/47 80/98/80 
s 4
f 58/73/58 73/90/73 74/91/74 59/74/59 
f 62/77/62 75/92/75 73/90/73 58/73/58 
f 64/79/64 76/93/76 75/94/75 62/80/62 
f 66/83/66 77/95/77 76/93/76 64/79/64 
f 68/85/68 78/96/78 77/95/77 66/83/66 
f 70/87/70 79/97/79 78/96/78 68/85/68 
f 72/89/72 80/98/80 79/97/79 70/87/70 
f 59/74/59 74/91/74 80/98/80 72/89/72 
s off
f 81/99/81 82/100/82 83/101/83 84/102/84 
f 85/103/85 86/104/86 82/100/82 81/99/81 
f 82/100/82 87/105/87 88/106/88 83/101/83 
f 86/104/86 89/107/89 87/105/87 82/100/82 
f 87/105/87 90/108/90 91/109/91 88/106/88 
f 89/107/89 92/110/92 90/108/90 87/105/87 
f 90/108/90 93/111/93 91/109/91 
f 92/110/92 93/111/93 90/108/90 
f 81/112/81 84/113/84 94/114/94 95/115/95 
f 84/113/84 56/116/56 96/117/96 94/114/94 
f 56/116/56 85/118/85 97/119/97 96/117/96 
f 85/118/85 81/112/81 95/115/95 97/119/97 
f 95/115/95 94/114/94 98/120/98 99/121/99 
f 94/114/94 96/117/96 100/122/100 98/120/98 
f 96/117/96 97/119/97 101/123/101 100/122/100 
f 97/119/97 95/115/95 99/121/99 101/123/101 
f 99/121/99 98/120/98 102/124/102 
f 98/120/98 100/122/100 103/125/103 
f 100/122/100 101/123/101 103/125/103 
f 101/123/101 99/121/99 102/124/102 
f 50/126/50 85/103/85 56/127/56 
f 56/127/56 84/102/84 55/128/55 
f 101/123/101 102/124/102 103/125/103 
f 103/125/103 102/124/102 98/120/98 
f 104/99/104 105/102/105 106/101/106 107/100/107 
f 85/103/85 104/99/104 107/100/107 86/104/86 
f 107/100/107 106/101/106 108/106/108 109/105/109 
f 86/104/86 107/100/107 109/105/109 89/107/89 
f 109/105/109 108/106/108 110/109/110 111/108/111 
f 89/107/89 109/105/109 111/108/111 92/110/92 
f 111/108/111 110/109/110 93/111/93 
f 92/110/92 111/108/111 93/111/93 
f 104/112/104 112/115/112 113/114/113 105/113/105 
f 105/113/105 113/114/113 114/117/114 49/116/49 
f 49/116/49 114/117/114 115/119/115 85/118/85 
f 85/118/85 115/119/115 112/115/112 104/112/104 
f 112/115/112 116/121/116 117/120/117 113/114/113 
f 113/114/113 117/120/117 118/122/118 114/117/114 
f 114/117/114 118/122/118 119/123/119 115/119/115 
f 115/119/115 119/123/119 116/121/116 112/115/112 
f 116/121/116 120/124/120 117/120/117 
f 117/120/117 121/125/121 118/122/118 
f 118/122/118 121/125/121 119/123/119 
f 119/123/119 120/124/120 116/121/116 
f 50/126/50 49/127/49 85/103/85 
f 49/127/49 51/128/51 105/102/105 
f 119/123/119 121/125/121 120/124/120 
f 121/125/121 117/120/117 120/124/120 
f 122/99/122 123/102/123 124/101/124 125/100/125 
f 105/103/105 122/99/122 125/100/125 106/104/106 
f 125/100/125 124/101/124 126/106/126 127/105/127 
f 106/104/106 125/100/125 127/105/127 108/107/108 
f 127/105/127 126/106/126 128/109/128 129/108/129 
f 108/107/108 127/105/127 129/108/129 110/110/110 
f 129/108/129 128/109/128 93/111/93 
f 110/110/110 129/108/129 93/111/93 
f 122/112/122 130/115/130 131/114/131 123/113/123 
f 123/113/123 131/114/131 132/117/132 52/116/52 
f 52/116/52 132/117/132 133/119/133 105/118/105 
f 105/118/105 133/119/133 130/115/130 122/112/122 
f 130/115/130 134/121/134 135/120/135 131/114/131 
f 131/114/131 135/120/135 136/122/136 132/117/132 
f 132/117/132 136/122/136 137/123/137 133/119/133 
f 133/119/133 137/123/137 134/121/134 130/115/130 
f 134/121/134 138/124/138 135/120/135 
f 135/120/135 139/125/139 136/122/136 
f 136/122/136 139/125/139 137/123/137 
f 137/123/137 138/124/138 134/121/134 
f 51/126/51 52/127/52 105/103/105 
f 52/127/52 53/128/53 123/102/123 
f 137/123/137 139/125/139 138/124/138 
f 139/125/139 135/120/135 138/124/138 
f 140/99/140 84/102/84 83/101/83 141/100/141 
f 123/103/123 140/99/140 141/100/141 124/104/124 
f 141/100/141 83/101/83 88/106/88 142/105/142 
f 124/104/124 141/100/141 142/105/142 126/107/126 
f 142/105/142 88/106/88 91/109/91 143/108/143 
f 126/107/126 142/105/142 143/108/143 128/110/128 
f 143/108/143 91/109/91 93/111/93 
f 128/110/128 143/108/143 93/111/93 
f 140/112/140 144/115/144 145/114/145 84/113/84 
f 84/113/84 145/114/145 146/117/146 54/116/54 
f 54/116/54 146/117/146 147/119/147 123/118/123 
f 123/118/123 147/119/147 144/115/144 140/112/140 
f 144/115/144 148/121/148 149/120/149 145/114/145 
f 145/114/145 149/120/149 150/122/150 146/117/146 
f 146/117/146 150/122/150 151/123/151 147/119/147 
f 147/119/147 151/123/151 148/121/148 144/115/144 
f 148/121/148 152/124/152 149/120/149 
f 149/120/149 153/125/153 150/122/150 
f 150/122/150 153/125/153 151/123/151 
f 151/123/151 152/124/152 148/121/148 
f 53/126/53 54/127/54 123/103/123 
f 54/127/54 55/128/55 84/102/84 
f 151/123/151 153/125/153 152/124/152 
f 153/125/153 149/120/149 152/124/152 
s 2
f 19/129/19 154/130/154 155/131/155 20/132/20 
f 22/133/22 156/134/156 154/130/154 19/129/19 
f 24/135/24 157/136/157 156/134/156 22/133/22 
f 26/137/26 158/138/158 157/139/157 24/140/24 
f 28/141/28 159/142/159 158/138/158 26/137/26 
f 30/143/30 160/144/160 159/142/159 28/141/28 
f 32/145/32 161/146/161 160/144/160 30/143/30 
f 20/132/20 155/131/155 161/146/161 32/145/32 
f 3/3/3 162/147/162 163/148/163 4/4/4 
f 6/6/6 164/149/164 162/147/162 3/3/3 
f 8/8/8 165/150/165 164/149/164 6/6/6 
f 10/11/10 166/151/166 165/152/165 8/12/8 
f 12/14/12 167/153/167 166/151/166 10/11/10 
f 14/16/14 168/154/168 167/153/167 12/14/12 
f 16/18/16 169/155/169 168/154/168 14/16/14 
f 4/4/4 163/148/163 169/155/169 16/18/16 
f 170/156/170 18/20/18 17/19/17 171/157/171 
f 172/158/172 21/23/21 18/20/18 170/156/170 
f 173/159/173 23/25/23 21/23/21 172/158/172 
f 174/160/174 25/28/25 23/27/23 173/161/173 
f 175/162/175 27/31/27 25/28/25 174/160/174 
f 176/163/176 29/33/29 27/31/27 175/162/175 
f 177/164/177 31/35/31 29/33/29 176/163/176 
f 171/157/171 17/19/17 31/35/31 177/164/177 
s 1
f 162/147/162 170/156/170 171/157/171 163/148/163 
f 164/149/164 172/158/172 170/156/170 162/147/162 
f 165/150/165 173/159/173 172/158/172 164/149/164 
f 166/151/166 174/160/174 173/161/173 165/152/165 
f 167/153/167 175/162/175 174/160/174 166/151/166 
f 168/154/168 176/163/176 175/162/175 167/153/167 
f 169/155/169 177/164/177 176/163/176 168/154/168 
f 163/148/163 171/157/171 177/164/177 169/155/169 
s 2
f 178/165/178 57/166/57 60/167/60 179/168/179 
f 180/169/180 61/170/61 57/166/57 178/165/178 
f 181/171/181 63/172/63 61/170/61 180/169/180 
f 182/173/182 65/174/65 63/175/63 181/176/181 
f 183/177/183 67/178/67 65/174/65 182/173/182 
f 184/179/184 69/180/69 67/178/67 183/177/183 
f 185/181/185 71/182/71 69/180/69 184/179/184 
f 179/168/179 60/167/60 71/182/71 185/181/185 
f 154/130/154 178/165/178 179/168/179 155/131/155 
f 156/134/156 180/169/180 178/165/178 154/130/154 
f 157/136/157 181/171/181 180/169/180 156/134/156 
f 158/138/158 182/173/182 181/176/181 157/139/157 
f 159/142/159 183/177/183 182/173/182 158/138/158 
f 160/144/160 184/179/184 183/177/183 159/142/159 
f 161/146/161 185/181/185 184/179/184 160/144/160 
f 155/131/155 179/168/179 185/181/185 161/146/161 
# 161 polygons - 40 triangles

